<?xml version="1.0" standalone="no"?>
<!DOCTYPE svg PUBLIC "-//W3C//DTD SVG 20010904//EN"
 "http://www.w3.org/TR/2001/REC-SVG-20010904/DTD/svg10.dtd">
<svg version="1.0" xmlns="http://www.w3.org/2000/svg"
 width="208.000000pt" height="208.000000pt" viewBox="0 0 208.000000 208.000000"
 preserveAspectRatio="xMidYMid meet">
<metadata>
Created by potrace 1.15, written by Peter Selinger 2001-2017
</metadata>
<g transform="translate(0.000000,208.000000) scale(0.100000,-0.100000)"
fill="#000000" stroke="none">
<path d="M910 1870 c0 -5 -25 -10 -55 -10 -30 0 -55 -4 -55 -10 0 -5 -13 -10
-30 -10 -16 0 -30 -4 -30 -10 0 -5 -11 -10 -25 -10 -14 0 -25 -4 -25 -10 0 -5
-9 -10 -20 -10 -11 0 -20 -4 -20 -10 0 -5 -9 -10 -20 -10 -11 0 -20 -7 -20
-15 0 -9 -9 -15 -21 -15 -11 0 -38 -18 -59 -40 -21 -22 -46 -40 -54 -40 -9 0
-16 -4 -16 -10 0 -5 -7 -10 -15 -10 -8 0 -15 -7 -15 -15 0 -8 -4 -15 -10 -15
-5 0 -10 -7 -10 -16 0 -8 -18 -33 -40 -54 -22 -21 -40 -48 -40 -59 0 -12 -6
-21 -15 -21 -8 0 -15 -9 -15 -20 0 -11 -4 -20 -10 -20 -5 0 -10 -9 -10 -20 0
-11 -4 -20 -10 -20 -5 0 -10 -11 -10 -25 0 -14 -4 -25 -10 -25 -5 0 -10 -13
-10 -30 0 -16 -4 -30 -10 -30 -5 0 -10 -25 -10 -55 0 -30 -4 -55 -10 -55 -6 0
-10 -50 -10 -130 0 -80 4 -130 10 -130 6 0 10 -25 10 -55 0 -30 5 -55 10 -55
6 0 10 -13 10 -30 0 -16 5 -30 10 -30 6 0 10 -11 10 -25 0 -14 5 -25 10 -25 6
0 10 -9 10 -20 0 -11 5 -20 10 -20 6 0 10 -9 10 -20 0 -11 7 -20 15 -20 9 0
15 -9 15 -21 0 -11 18 -38 40 -59 22 -21 40 -46 40 -55 0 -19 23 -45 39 -45 6
0 11 -4 11 -10 0 -5 7 -10 15 -10 17 0 85 -64 85 -80 0 -5 11 -10 25 -10 14 0
25 -4 25 -10 0 -5 9 -10 20 -10 11 0 20 -4 20 -10 0 -5 9 -10 20 -10 11 0 20
-4 20 -10 0 -5 11 -10 25 -10 14 0 25 -4 25 -10 0 -5 14 -10 30 -10 17 0 30
-4 30 -10 0 -5 25 -10 55 -10 42 0 55 -3 55 -15 0 -13 21 -15 130 -15 109 0
130 2 130 15 0 12 13 15 55 15 30 0 55 5 55 10 0 6 14 10 30 10 17 0 30 5 30
10 0 6 11 10 25 10 14 0 25 5 25 10 0 6 9 10 20 10 11 0 20 5 20 10 0 6 9 10
20 10 11 0 20 5 20 10 0 6 7 10 15 10 8 0 15 7 15 15 0 8 7 15 16 15 9 0 29
14 44 30 15 17 35 30 44 30 22 0 66 44 66 66 0 9 14 29 30 44 17 15 30 35 30
44 0 9 7 16 15 16 8 0 15 7 15 15 0 8 5 15 10 15 6 0 10 9 10 20 0 11 5 20 10
20 6 0 10 9 10 20 0 11 5 20 10 20 6 0 10 11 10 25 0 14 5 25 10 25 6 0 10 14
10 30 0 17 5 30 10 30 6 0 10 25 10 55 0 42 3 55 15 55 13 0 15 21 15 130 0
109 -2 130 -15 130 -12 0 -15 13 -15 55 0 30 -4 55 -10 55 -5 0 -10 14 -10 30
0 17 -4 30 -10 30 -5 0 -10 11 -10 25 0 14 -4 25 -10 25 -5 0 -10 9 -10 20 0
11 -4 20 -10 20 -5 0 -10 9 -10 20 0 11 -4 20 -10 20 -5 0 -10 11 -10 25 0 14
-5 25 -10 25 -16 0 -80 68 -80 85 0 8 -4 15 -10 15 -5 0 -10 5 -10 11 0 16
-26 39 -45 39 -9 0 -34 18 -55 40 -21 22 -48 40 -59 40 -12 0 -21 6 -21 15 0
8 -9 15 -20 15 -11 0 -20 5 -20 10 0 6 -9 10 -20 10 -11 0 -20 5 -20 10 0 6
-11 10 -25 10 -14 0 -25 5 -25 10 0 6 -13 10 -30 10 -16 0 -30 5 -30 10 0 6
-25 10 -55 10 -30 0 -55 5 -55 10 0 6 -50 10 -130 10 -80 0 -130 -4 -130 -10z
m260 -130 c0 -5 20 -10 45 -10 25 0 45 -4 45 -10 0 -5 14 -10 30 -10 17 0 30
-4 30 -10 0 -5 11 -10 25 -10 14 0 25 -4 25 -10 0 -5 7 -10 16 -10 18 0 44
-23 44 -39 0 -6 9 -11 20 -11 11 0 20 -4 20 -10 0 -5 5 -10 10 -10 11 0 100
-85 100 -95 0 -10 28 -35 39 -35 6 0 11 -8 11 -18 0 -10 9 -24 20 -32 11 -8
20 -25 20 -37 0 -13 5 -23 10 -23 6 0 10 -9 10 -20 0 -11 5 -20 10 -20 6 0 10
-13 10 -30 0 -16 5 -30 10 -30 6 0 10 -20 10 -45 0 -33 4 -45 15 -45 13 0 15
-21 15 -130 0 -109 -2 -130 -15 -130 -11 0 -15 -12 -15 -45 0 -25 -4 -45 -10
-45 -5 0 -10 -13 -10 -30 0 -16 -4 -30 -10 -30 -5 0 -10 -11 -10 -25 0 -14 -4
-25 -10 -25 -5 0 -10 -8 -10 -18 0 -10 -9 -24 -20 -32 -11 -8 -20 -22 -20 -32
0 -10 -7 -18 -15 -18 -8 0 -15 -5 -15 -10 0 -14 -106 -120 -120 -120 -5 0 -10
-7 -10 -15 0 -8 -8 -15 -18 -15 -10 0 -24 -9 -32 -20 -8 -11 -22 -20 -32 -20
-10 0 -18 -4 -18 -10 0 -5 -11 -10 -25 -10 -14 0 -25 -4 -25 -10 0 -5 -13 -10
-30 -10 -16 0 -30 -4 -30 -10 0 -5 -20 -10 -45 -10 -33 0 -45 -4 -45 -15 0
-13 -21 -15 -130 -15 -109 0 -130 2 -130 15 0 11 -12 15 -45 15 -25 0 -45 5
-45 10 0 6 -13 10 -30 10 -16 0 -30 5 -30 10 0 6 -9 10 -20 10 -11 0 -20 5
-20 10 0 6 -10 10 -23 10 -12 0 -29 9 -37 20 -8 11 -22 20 -32 20 -10 0 -18 5
-18 11 0 11 -25 39 -35 39 -10 0 -95 89 -95 100 0 5 -4 10 -10 10 -5 0 -10 9
-10 20 0 11 -5 20 -11 20 -16 0 -39 26 -39 44 0 9 -4 16 -10 16 -5 0 -10 11
-10 25 0 14 -4 25 -10 25 -5 0 -10 14 -10 30 0 17 -4 30 -10 30 -5 0 -10 20
-10 45 0 25 -4 45 -10 45 -6 0 -10 50 -10 130 0 80 4 130 10 130 6 0 10 20 10
45 0 25 5 45 10 45 6 0 10 14 10 30 0 17 5 30 10 30 6 0 10 9 10 20 0 11 5 20
10 20 6 0 10 9 10 21 0 22 22 49 39 49 6 0 11 8 11 18 0 10 9 24 20 32 11 8
20 18 20 23 0 10 67 77 77 77 5 0 15 9 23 20 8 11 22 20 32 20 10 0 18 5 18
11 0 17 27 39 49 39 12 0 21 5 21 10 0 6 9 10 20 10 11 0 20 5 20 10 0 6 14
10 30 10 17 0 30 5 30 10 0 6 20 10 45 10 25 0 45 5 45 10 0 6 50 10 130 10
80 0 130 -4 130 -10z"/>
<path d="M980 1230 l0 -130 -130 0 -130 0 0 -65 0 -65 130 0 130 0 0 -130 0
-130 65 0 65 0 0 130 0 130 130 0 130 0 0 65 0 65 -130 0 -130 0 0 130 0 130
-65 0 -65 0 0 -130z"/>
</g>
</svg>
