<?xml version="1.0" standalone="no"?>
<!DOCTYPE svg PUBLIC "-//W3C//DTD SVG 20010904//EN"
 "http://www.w3.org/TR/2001/REC-SVG-20010904/DTD/svg10.dtd">
<svg version="1.0" xmlns="http://www.w3.org/2000/svg"
 width="196.000000pt" height="197.000000pt" viewBox="0 0 196.000000 197.000000"
 preserveAspectRatio="xMidYMid meet">
<metadata>
Created by potrace 1.15, written by Peter Selinger 2001-2017
</metadata>
<g transform="translate(0.000000,197.000000) scale(0.100000,-0.100000)" stroke="none">
<path d="M23 1935 l-23 -24 0 -931 0 -931 25 -24 24 -25 931 0 931 0 24 25 25
24 0 931 0 931 -25 24 -24 25 -933 -1 -933 0 -22 -24z m1037 -660 l0 -215 215
0 215 0 0 -80 0 -80 -215 0 -215 0 0 -215 0 -215 -80 0 -80 0 0 215 0 215
-215 0 -215 0 0 80 0 80 215 0 215 0 0 215 0 215 80 0 80 0 0 -215z"/>
</g>
</svg>
