<?xml version="1.0" standalone="no"?>
<!DOCTYPE svg PUBLIC "-//W3C//DTD SVG 20010904//EN"
 "http://www.w3.org/TR/2001/REC-SVG-20010904/DTD/svg10.dtd">
<svg version="1.0" xmlns="http://www.w3.org/2000/svg"
 width="224.000000pt" height="224.000000pt" viewBox="0 0 224.000000 224.000000"
 preserveAspectRatio="xMidYMid meet">
<metadata>
Created by potrace 1.14, written by Peter Selinger 2001-2017
</metadata>
<g transform="translate(0.000000,224.000000) scale(0.100000,-0.100000)"
fill="#000000" stroke="none">
<path d="M780 2210 c0 -5 -16 -10 -35 -10 -19 0 -35 -4 -35 -10 0 -5 -9 -10
-20 -10 -11 0 -20 -7 -20 -15 0 -8 -9 -15 -20 -15 -27 0 -130 -103 -130 -130
0 -11 -4 -20 -10 -20 -5 0 -10 -9 -10 -20 0 -11 -7 -20 -15 -20 -10 0 -15 -10
-15 -30 0 -16 -4 -30 -10 -30 -5 0 -10 -25 -10 -55 0 -30 -4 -55 -10 -55 -6 0
-10 -35 -10 -85 0 -50 4 -85 10 -85 6 0 10 -28 10 -65 0 -37 4 -65 10 -65 6 0
10 -16 10 -35 0 -24 5 -35 15 -35 10 0 15 -10 15 -30 0 -16 5 -30 10 -30 6 0
10 -11 10 -25 0 -14 5 -25 10 -25 6 0 10 -9 10 -20 0 -11 5 -20 10 -20 6 0 10
-8 10 -18 0 -10 9 -24 20 -32 11 -8 20 -23 20 -33 0 -18 22 -47 35 -47 22 0
35 -34 35 -95 0 -65 -13 -95 -39 -95 -6 0 -11 -4 -11 -10 0 -5 -9 -10 -20 -10
-11 0 -20 -7 -20 -15 0 -8 -9 -15 -20 -15 -11 0 -20 -4 -20 -10 0 -5 -16 -10
-35 -10 -19 0 -35 -4 -35 -10 0 -5 -9 -10 -20 -10 -11 0 -20 -4 -20 -10 0 -5
-9 -10 -20 -10 -11 0 -20 -4 -20 -10 0 -5 -11 -10 -25 -10 -14 0 -25 -4 -25
-10 0 -5 -7 -10 -16 -10 -18 0 -44 -23 -44 -39 0 -6 -8 -11 -18 -11 -10 0 -24
-9 -32 -20 -8 -11 -23 -20 -33 -20 -16 0 -87 -61 -87 -75 0 -8 -27 -35 -35
-35 -12 0 -35 -29 -35 -44 0 -9 -4 -16 -10 -16 -5 0 -10 -16 -10 -35 0 -19 -4
-35 -10 -35 -5 0 -10 -22 -10 -50 0 -27 5 -50 10 -50 6 0 10 -14 10 -30 0 -29
37 -80 57 -80 5 0 15 -9 23 -20 8 -11 22 -20 32 -20 10 0 18 -7 18 -15 0 -8 9
-15 20 -15 11 0 20 -4 20 -10 0 -5 16 -10 35 -10 19 0 35 -4 35 -10 0 -5 14
-10 30 -10 17 0 30 -4 30 -10 0 -6 28 -10 65 -10 37 0 65 -4 65 -10 0 -6 43
-10 110 -10 67 0 110 -4 110 -10 0 -6 82 -10 225 -10 124 0 225 3 225 6 0 11
-29 34 -44 34 -9 0 -16 5 -16 10 0 6 -7 10 -15 10 -8 0 -15 5 -15 10 0 6 -9
10 -20 10 -11 0 -20 5 -20 10 0 6 -9 10 -20 10 -11 0 -20 7 -20 15 0 8 -9 15
-20 15 -24 0 -70 42 -70 65 0 8 -4 15 -10 15 -5 0 -10 9 -10 20 0 11 -4 20
-10 20 -6 0 -10 40 -10 100 0 60 4 100 10 100 6 0 10 8 10 18 0 10 9 24 20 32
11 8 20 23 20 33 0 18 22 47 35 47 4 0 24 18 45 40 21 22 46 40 54 40 9 0 16
7 16 15 0 12 19 15 110 15 91 0 110 -3 110 -15 0 -10 10 -15 30 -15 17 0 30
-4 30 -10 0 -5 9 -10 21 -10 12 0 34 -13 49 -30 33 -35 50 -38 70 -10 8 11 20
20 27 20 7 0 13 9 13 20 0 11 5 20 10 20 6 0 10 11 10 25 0 20 -5 25 -25 25
-14 0 -25 5 -25 10 0 6 -9 10 -20 10 -11 0 -20 5 -20 10 0 6 -9 10 -20 10 -11
0 -20 5 -20 10 0 6 -16 10 -35 10 -19 0 -35 5 -35 10 0 6 -9 10 -20 10 -11 0
-20 5 -20 10 0 6 -13 10 -30 10 -20 0 -30 5 -30 15 0 9 -9 15 -21 15 -38 0
-49 23 -49 105 0 67 3 79 25 100 13 14 29 25 35 25 5 0 10 10 10 23 0 12 9 29
20 37 11 8 20 22 20 32 0 10 5 18 10 18 6 0 10 9 10 20 0 11 5 20 10 20 6 0
10 11 10 25 0 14 5 25 10 25 6 0 10 14 10 30 0 20 5 30 15 30 10 0 15 11 15
35 0 19 5 35 10 35 6 0 10 28 10 65 0 37 4 65 10 65 6 0 10 35 10 85 0 50 -4
85 -10 85 -5 0 -10 25 -10 55 0 30 -4 55 -10 55 -5 0 -10 14 -10 30 0 20 -5
30 -15 30 -8 0 -15 9 -15 20 0 11 -4 20 -10 20 -5 0 -10 9 -10 20 0 21 -81
110 -100 110 -5 0 -10 5 -10 10 0 6 -9 10 -20 10 -11 0 -20 7 -20 15 0 8 -9
15 -20 15 -11 0 -20 5 -20 10 0 6 -16 10 -35 10 -19 0 -35 5 -35 10 0 6 -48
10 -125 10 -77 0 -125 -4 -125 -10z"/>
<path d="M2180 1020 c0 -5 -16 -10 -35 -10 -19 0 -35 -4 -35 -10 0 -5 -9 -10
-20 -10 -11 0 -20 -4 -20 -10 0 -5 -11 -10 -25 -10 -14 0 -25 -4 -25 -10 0 -5
-7 -10 -16 -10 -18 0 -44 -23 -44 -39 0 -6 -8 -11 -18 -11 -10 0 -24 -9 -32
-20 -8 -11 -23 -20 -33 -20 -11 0 -32 -13 -47 -30 -15 -16 -35 -30 -44 -30 -9
0 -16 -4 -16 -10 0 -5 -7 -10 -15 -10 -8 0 -15 -5 -15 -11 0 -5 -27 -37 -60
-69 -35 -34 -60 -68 -60 -79 0 -12 -5 -21 -10 -21 -15 0 -60 -47 -60 -62 0 -8
-9 -20 -20 -28 -11 -8 -20 -25 -20 -37 0 -13 -4 -23 -10 -23 -5 0 -10 -9 -10
-20 0 -11 -6 -20 -14 -20 -8 0 -16 -5 -18 -12 -4 -11 -98 73 -98 87 0 9 -27
35 -35 35 -4 0 -20 14 -35 30 -15 17 -35 30 -44 30 -9 0 -16 5 -16 10 0 6 -31
10 -73 10 -61 0 -75 -3 -87 -20 -8 -11 -20 -20 -27 -20 -7 0 -13 -8 -13 -18 0
-10 -9 -24 -20 -32 -29 -21 -29 -109 0 -130 11 -8 20 -20 20 -27 0 -7 11 -13
25 -13 14 0 25 -4 25 -10 0 -5 8 -10 18 -10 10 0 24 -9 32 -20 8 -11 22 -20
32 -20 10 0 18 -4 18 -10 0 -5 7 -10 15 -10 8 0 15 -4 15 -10 0 -5 7 -10 16
-10 17 0 44 -23 44 -37 0 -5 9 -15 20 -23 11 -8 20 -22 20 -32 0 -10 5 -18 10
-18 17 0 60 -47 60 -65 0 -21 24 -45 43 -45 9 0 18 -6 21 -13 5 -9 7 -9 12 1
3 6 15 12 26 12 25 0 48 23 48 49 0 12 5 21 10 21 6 0 10 9 10 20 0 11 5 20
10 20 6 0 10 14 10 30 0 17 5 30 10 30 6 0 10 11 10 25 0 16 6 25 15 25 8 0
15 9 15 20 0 11 5 20 10 20 6 0 10 9 10 20 0 11 5 20 10 20 6 0 10 11 10 25 0
14 5 25 10 25 6 0 10 9 10 20 0 11 5 20 10 20 6 0 10 9 10 20 0 11 5 20 10 20
6 0 10 11 10 25 0 14 5 25 10 25 6 0 10 9 10 20 0 11 5 20 11 20 15 0 39 26
39 42 0 8 9 20 20 28 11 8 20 23 20 33 0 17 41 67 55 67 12 0 35 29 35 45 0
14 102 125 115 125 8 0 35 27 35 35 0 12 50 55 65 55 8 0 15 5 15 10 0 6 5 10
11 10 11 0 39 24 39 34 0 3 -4 6 -10 6 -5 0 -10 -4 -10 -10z"/>
</g>
</svg>
