<?xml version="1.0" standalone="no"?>
<!DOCTYPE svg PUBLIC "-//W3C//DTD SVG 20010904//EN"
 "http://www.w3.org/TR/2001/REC-SVG-20010904/DTD/svg10.dtd">
<svg version="1.0" xmlns="http://www.w3.org/2000/svg"
 width="244.000000pt" height="241.000000pt" viewBox="0 0 244.000000 241.000000"
 preserveAspectRatio="xMidYMid meet">
<metadata>
Created by potrace 1.14, written by Peter Selinger 2001-2017
</metadata>
<g transform="translate(0.000000,241.000000) scale(0.100000,-0.100000)"
fill="#000000" stroke="none">
<path d="M1117 2290 c-15 -5 -46 -24 -67 -44 -66 -59 -114 -78 -220 -86 -52
-4 -108 -12 -123 -19 -28 -11 -28 -11 -11 -43 84 -165 166 -195 322 -118 103
51 139 52 212 5 69 -45 111 -53 148 -30 15 10 74 57 131 104 57 47 112 93 123
101 13 11 17 22 12 34 -6 17 -14 18 -83 11 -158 -17 -196 -10 -282 51 -51 35
-115 49 -162 34z"/>
<path d="M1545 1968 c-175 -151 -246 -168 -347 -83 -41 35 -91 33 -147 -5 -75
-51 -134 -60 -217 -35 -27 8 -50 15 -51 15 -1 0 11 -31 27 -69 35 -86 73 -151
102 -178 43 -38 136 -65 245 -71 91 -4 112 -2 187 22 49 15 103 40 128 59 41
31 44 38 94 192 60 187 67 215 57 214 -5 0 -39 -27 -78 -61z"/>
<path d="M1753 1765 c-56 -17 -135 -64 -131 -77 2 -5 72 -54 157 -109 135 -87
211 -123 227 -106 3 3 -3 25 -14 50 -17 38 -32 52 -101 93 -93 56 -86 65 32
44 37 -7 84 -9 103 -5 33 6 35 9 30 33 -9 35 -47 68 -94 81 -50 15 -158 13
-209 -4z"/>
<path d="M1570 1561 c-14 -5 -53 -22 -87 -39 -187 -95 -389 -99 -581 -11 -109
49 -148 41 -279 -58 -226 -170 -365 -409 -394 -679 -34 -308 85 -518 340 -598
91 -29 220 -49 455 -71 153 -14 189 -14 395 0 124 9 269 22 322 30 264 39 415
159 475 376 13 46 18 102 18 199 1 114 -3 146 -22 210 -81 258 -277 498 -497
608 -70 34 -110 44 -145 33z m-518 -446 l83 -124 128 -1 127 0 0 125 0 125 55
0 55 0 0 -125 0 -125 35 0 c35 0 35 0 35 -45 0 -45 0 -45 -35 -45 l-35 0 0
-70 0 -70 35 0 c35 0 35 0 35 -45 0 -45 0 -45 -35 -45 l-35 0 0 -125 0 -125
-57 0 -58 1 -83 124 -82 125 -130 0 -130 0 0 -125 0 -125 -55 0 -55 0 0 125 0
125 -30 0 c-29 0 -30 2 -30 45 0 43 1 45 30 45 l30 0 0 70 0 70 -30 0 c-29 0
-30 2 -30 45 0 43 1 45 30 45 l30 0 0 125 0 125 60 0 60 0 82 -125z"/>
<path d="M960 830 l0 -70 100 0 100 0 -46 70 -47 70 -53 0 -54 0 0 -70z"/>
<path d="M1206 888 c4 -7 25 -39 46 -70 38 -58 39 -58 88 -58 l50 0 0 70 0 70
-96 0 c-73 0 -94 -3 -88 -12z"/>
</g>
</svg>
