<?xml version="1.0" standalone="no"?>
<!DOCTYPE svg PUBLIC "-//W3C//DTD SVG 20010904//EN"
 "http://www.w3.org/TR/2001/REC-SVG-20010904/DTD/svg10.dtd">
<svg version="1.0" xmlns="http://www.w3.org/2000/svg"
 width="192.000000pt" height="192.000000pt" viewBox="0 0 192.000000 192.000000"
 preserveAspectRatio="xMidYMid meet">
<metadata>
Created by potrace 1.15, written by Peter Selinger 2001-2017
</metadata>
<g transform="translate(0.000000,192.000000) scale(0.100000,-0.100000)"
fill="#000000" stroke="none">
<path d="M900 1790 c0 -5 -9 -10 -20 -10 -30 0 -130 -104 -130 -135 0 -14 -4
-25 -10 -25 -5 0 -10 -25 -10 -55 0 -30 5 -55 10 -55 6 0 10 -12 10 -27 0 -19
11 -36 31 -53 17 -14 41 -35 54 -47 13 -13 33 -23 45 -23 11 0 20 -4 20 -10 0
-6 27 -10 60 -10 33 0 60 4 60 10 0 6 11 10 25 10 34 0 125 91 125 125 0 14 5
25 10 25 6 0 10 25 10 55 0 30 -4 55 -10 55 -5 0 -10 11 -10 25 0 15 -13 39
-32 59 -18 18 -40 43 -48 55 -9 13 -25 21 -42 21 -15 0 -28 5 -28 10 0 6 -27
10 -60 10 -33 0 -60 -4 -60 -10z"/>
<path d="M900 1180 c0 -5 -9 -10 -20 -10 -11 0 -45 -25 -75 -55 -30 -30 -55
-64 -55 -75 0 -11 -4 -20 -10 -20 -6 0 -10 -27 -10 -60 0 -33 4 -60 10 -60 6
0 10 -13 10 -28 0 -17 8 -33 21 -42 12 -8 37 -30 55 -47 18 -18 42 -33 54 -33
11 0 20 -4 20 -10 0 -6 27 -10 60 -10 33 0 60 4 60 10 0 6 13 10 28 10 17 0
33 8 42 21 19 27 32 40 59 59 13 9 21 25 21 42 0 15 5 28 10 28 6 0 10 27 10
60 0 33 -4 60 -10 60 -5 0 -10 9 -10 20 0 12 -15 36 -32 54 -18 18 -40 43 -48
55 -9 13 -25 21 -42 21 -15 0 -28 5 -28 10 0 6 -27 10 -60 10 -33 0 -60 -4
-60 -10z"/>
<path d="M900 570 c0 -5 -9 -10 -20 -10 -11 0 -45 -25 -75 -55 -30 -30 -55
-64 -55 -75 0 -11 -4 -20 -10 -20 -6 0 -10 -27 -10 -60 0 -33 4 -60 10 -60 6
0 10 -13 10 -30 0 -16 4 -30 10 -30 5 0 30 -20 54 -45 25 -25 55 -45 66 -45
11 0 20 -4 20 -10 0 -6 27 -10 60 -10 33 0 60 4 60 10 0 6 13 10 28 10 17 0
33 8 42 21 22 33 60 69 70 69 6 0 10 14 10 30 0 17 5 30 10 30 6 0 10 27 10
60 0 33 -4 60 -10 60 -5 0 -10 9 -10 20 0 12 -15 36 -32 54 -18 18 -40 43 -48
55 -9 13 -25 21 -42 21 -15 0 -28 5 -28 10 0 6 -27 10 -60 10 -33 0 -60 -4
-60 -10z"/>
</g>
</svg>
