<?xml version="1.0" standalone="no"?>
<!DOCTYPE svg PUBLIC "-//W3C//DTD SVG 20010904//EN"
 "http://www.w3.org/TR/2001/REC-SVG-20010904/DTD/svg10.dtd">
<svg version="1.0" xmlns="http://www.w3.org/2000/svg"
 width="229.000000pt" height="230.000000pt" viewBox="0 0 229.000000 230.000000"
 preserveAspectRatio="xMidYMid meet">
<metadata>
Created by potrace 1.14, written by Peter Selinger 2001-2017
</metadata>
<g transform="translate(0.000000,230.000000) scale(0.100000,-0.100000)"
fill="#000000" stroke="none">
<path d="M1080 2290 c0 -5 -16 -10 -35 -10 -24 0 -35 -5 -35 -15 0 -8 -5 -15
-10 -15 -14 0 -80 -66 -80 -80 0 -5 -7 -10 -15 -10 -10 0 -15 -11 -15 -35 0
-19 -4 -35 -10 -35 -6 0 -10 -28 -10 -65 0 -37 4 -65 10 -65 6 0 10 -16 10
-35 0 -19 5 -35 11 -35 11 0 39 -25 39 -35 0 -10 48 -55 60 -55 5 0 10 -7 10
-15 0 -10 11 -15 35 -15 19 0 35 -4 35 -10 0 -6 28 -10 65 -10 37 0 65 4 65
10 0 6 16 10 35 10 19 0 35 5 35 11 0 11 25 39 35 39 8 0 35 27 35 35 0 10 28
35 39 35 6 0 11 16 11 35 0 19 5 35 10 35 6 0 10 28 10 65 0 37 -4 65 -10 65
-5 0 -10 16 -10 35 0 24 -5 35 -15 35 -8 0 -15 5 -15 10 0 12 -45 60 -55 60
-10 0 -35 28 -35 39 0 6 -16 11 -35 11 -19 0 -35 5 -35 10 0 6 -28 10 -65 10
-37 0 -65 -4 -65 -10z"/>
<path d="M920 1690 c0 -5 -11 -10 -25 -10 -14 0 -25 -4 -25 -10 0 -5 -9 -10
-21 -10 -19 0 -49 -21 -49 -35 0 -10 -48 -55 -60 -55 -5 0 -10 -11 -10 -25 0
-14 -4 -25 -10 -25 -5 0 -10 -9 -10 -20 0 -11 -4 -20 -10 -20 -6 0 -10 -38
-10 -95 l0 -95 455 0 455 0 0 95 c0 57 -4 95 -10 95 -5 0 -10 9 -10 20 0 11
-4 20 -10 20 -5 0 -10 11 -10 25 0 14 -5 25 -10 25 -14 0 -60 46 -60 60 0 5
-7 10 -15 10 -8 0 -15 5 -15 10 0 6 -9 10 -20 10 -11 0 -20 5 -20 10 0 6 -11
10 -25 10 -14 0 -25 5 -25 10 0 6 -82 10 -225 10 -143 0 -225 -4 -225 -10z"/>
<path d="M1920 1409 c0 -11 -6 -27 -14 -35 -8 -8 -24 -14 -35 -14 -12 0 -21
-4 -21 -10 0 -5 -7 -10 -16 -10 -22 0 -44 -25 -44 -49 0 -12 -6 -21 -15 -21
-9 0 -15 -9 -15 -21 0 -51 35 -49 -880 -49 -725 0 -854 -2 -866 -14 -20 -21
-20 -221 0 -242 22 -21 2240 -21 2262 0 10 11 14 42 14 121 0 118 -7 135 -59
135 -17 0 -31 5 -31 10 0 6 -7 10 -15 10 -9 0 -15 9 -15 25 0 14 -4 25 -10 25
-5 0 -10 9 -10 21 0 26 -23 49 -49 49 -12 0 -21 5 -21 10 0 6 -9 10 -20 10
-11 0 -20 5 -20 10 0 6 -7 10 -15 10 -9 0 -15 9 -15 25 0 23 -4 25 -45 25 -39
0 -45 -3 -45 -21z m90 -129 c0 -5 9 -10 21 -10 26 0 49 -23 49 -49 0 -20 -5
-21 -115 -21 l-115 0 0 25 c0 16 6 25 15 25 8 0 15 5 15 10 0 6 9 10 20 10 11
0 20 5 20 10 0 6 20 10 45 10 25 0 45 -4 45 -10z"/>
<path d="M90 439 c0 -334 2 -403 14 -415 12 -12 165 -14 1040 -14 677 0 1026
3 1026 10 0 6 7 10 15 10 13 0 15 52 15 405 l0 405 -1055 0 -1055 0 0 -401z"/>
</g>
</svg>
