<?xml version="1.0" standalone="no"?>
<!DOCTYPE svg PUBLIC "-//W3C//DTD SVG 20010904//EN"
 "http://www.w3.org/TR/2001/REC-SVG-20010904/DTD/svg10.dtd">
<svg version="1.0" xmlns="http://www.w3.org/2000/svg"
 width="245.000000pt" height="244.000000pt" viewBox="0 0 245.000000 244.000000"
 preserveAspectRatio="xMidYMid meet">
<metadata>
Created by potrace 1.14, written by Peter Selinger 2001-2017
</metadata>
<g transform="translate(0.000000,244.000000) scale(0.100000,-0.100000)"
fill="#000000" stroke="none">
<path d="M1080 2280 c0 -6 -27 -10 -60 -10 -47 0 -60 -3 -60 -15 0 -10 -11
-15 -35 -15 -19 0 -35 -4 -35 -10 0 -5 -16 -10 -35 -10 -19 0 -35 -4 -35 -10
0 -5 -11 -10 -25 -10 -16 0 -25 -6 -25 -15 0 -9 -9 -15 -25 -15 -14 0 -25 -4
-25 -10 0 -5 -11 -10 -25 -10 -16 0 -25 -6 -25 -15 0 -9 -9 -15 -21 -15 -22 0
-49 -22 -49 -39 0 -6 -6 -11 -13 -11 -7 0 -19 -9 -27 -20 -8 -11 -25 -20 -37
-20 -14 0 -23 -6 -23 -15 0 -8 -5 -15 -11 -15 -14 0 -39 -25 -39 -39 0 -6 -7
-11 -15 -11 -9 0 -15 -9 -15 -23 0 -12 -9 -29 -20 -37 -11 -8 -20 -20 -20 -27
0 -7 -5 -13 -11 -13 -17 0 -39 -27 -39 -49 0 -12 -6 -21 -15 -21 -9 0 -15 -9
-15 -25 0 -14 -4 -25 -10 -25 -5 0 -10 -11 -10 -25 0 -16 -6 -25 -15 -25 -9 0
-15 -9 -15 -25 0 -14 -4 -25 -10 -25 -5 0 -10 -9 -10 -20 0 -11 -4 -20 -10
-20 -5 0 -10 -22 -10 -50 0 -38 -4 -50 -15 -50 -12 0 -15 -13 -15 -60 0 -33
-4 -60 -10 -60 -6 0 -10 -57 -10 -150 0 -93 4 -150 10 -150 6 0 10 -27 10 -60
0 -47 3 -60 15 -60 11 0 15 -12 15 -50 0 -27 5 -50 10 -50 6 0 10 -9 10 -20 0
-11 5 -20 10 -20 6 0 10 -11 10 -25 0 -16 6 -25 15 -25 9 0 15 -9 15 -25 0
-14 5 -25 10 -25 6 0 10 -11 10 -25 0 -16 6 -25 15 -25 9 0 15 -9 15 -21 0
-22 22 -49 39 -49 6 0 11 -6 11 -13 0 -7 9 -19 20 -27 11 -8 20 -25 20 -37 0
-14 6 -23 15 -23 8 0 15 -5 15 -11 0 -14 25 -39 39 -39 6 0 11 -7 11 -15 0 -9
9 -15 23 -15 12 0 29 -9 37 -20 8 -11 20 -20 27 -20 7 0 13 -5 13 -11 0 -17
27 -39 49 -39 12 0 21 -6 21 -15 0 -9 9 -15 25 -15 14 0 25 -4 25 -10 0 -5 11
-10 25 -10 16 0 25 -6 25 -15 0 -9 9 -15 25 -15 14 0 25 -4 25 -10 0 -5 16
-10 35 -10 19 0 35 -4 35 -10 0 -5 16 -10 35 -10 24 0 35 -5 35 -15 0 -12 13
-15 60 -15 33 0 60 -4 60 -10 0 -6 57 -10 150 -10 93 0 150 4 150 10 0 6 27
10 60 10 47 0 60 3 60 15 0 11 12 15 50 15 28 0 50 5 50 10 0 6 9 10 20 10 11
0 20 5 20 10 0 6 11 10 25 10 16 0 25 6 25 15 0 9 9 15 25 15 14 0 25 5 25 10
0 6 11 10 25 10 16 0 25 6 25 15 0 9 9 15 21 15 22 0 49 22 49 39 0 6 6 11 13
11 7 0 19 9 27 20 8 11 25 20 37 20 14 0 23 6 23 15 0 8 5 15 11 15 14 0 39
25 39 39 0 6 7 11 15 11 9 0 15 9 15 23 0 12 9 29 20 37 11 8 20 20 20 27 0 7
5 13 11 13 17 0 39 27 39 49 0 12 6 21 15 21 9 0 15 9 15 25 0 14 5 25 10 25
6 0 10 11 10 25 0 16 6 25 15 25 9 0 15 9 15 25 0 14 5 25 10 25 6 0 10 16 10
35 0 19 5 35 10 35 6 0 10 16 10 35 0 24 5 35 15 35 12 0 15 13 15 60 0 33 4
60 10 60 6 0 10 57 10 150 0 93 -4 150 -10 150 -6 0 -10 27 -10 60 0 47 -3 60
-15 60 -10 0 -15 11 -15 35 0 19 -4 35 -10 35 -5 0 -10 16 -10 35 0 19 -4 35
-10 35 -5 0 -10 11 -10 25 0 16 -6 25 -15 25 -9 0 -15 9 -15 25 0 14 -4 25
-10 25 -5 0 -10 11 -10 25 0 16 -6 25 -15 25 -9 0 -15 9 -15 21 0 22 -22 49
-39 49 -6 0 -11 6 -11 13 0 7 -9 19 -20 27 -11 8 -20 25 -20 37 0 14 -6 23
-15 23 -8 0 -15 5 -15 11 0 14 -25 39 -39 39 -6 0 -11 7 -11 15 0 9 -9 15 -23
15 -12 0 -29 9 -37 20 -8 11 -20 20 -27 20 -7 0 -13 5 -13 11 0 17 -27 39 -49
39 -12 0 -21 6 -21 15 0 9 -9 15 -25 15 -14 0 -25 5 -25 10 0 6 -11 10 -25 10
-16 0 -25 6 -25 15 0 9 -9 15 -25 15 -14 0 -25 5 -25 10 0 6 -9 10 -20 10 -11
0 -20 5 -20 10 0 6 -22 10 -50 10 -38 0 -50 4 -50 15 0 12 -13 15 -60 15 -33
0 -60 4 -60 10 0 6 -57 10 -150 10 -93 0 -150 -4 -150 -10z m300 -95 c0 -12
13 -15 60 -15 33 0 60 -4 60 -10 0 -5 16 -10 35 -10 24 0 35 -5 35 -15 0 -9 9
-15 25 -15 14 0 25 -4 25 -10 0 -5 11 -10 25 -10 16 0 25 -6 25 -15 0 -9 9
-15 25 -15 14 0 25 -4 25 -10 0 -5 9 -10 21 -10 22 0 49 -22 49 -39 0 -6 9
-11 21 -11 22 0 49 -22 49 -39 0 -6 5 -11 11 -11 14 0 39 -25 39 -39 0 -6 5
-11 11 -11 14 0 39 -25 39 -39 0 -6 5 -11 11 -11 17 0 39 -27 39 -49 0 -12 5
-21 11 -21 17 0 39 -27 39 -49 0 -12 5 -21 10 -21 6 0 10 -11 10 -25 0 -16 6
-25 15 -25 9 0 15 -9 15 -25 0 -14 5 -25 10 -25 6 0 10 -11 10 -25 0 -16 6
-25 15 -25 10 0 15 -11 15 -35 0 -19 5 -35 10 -35 6 0 10 -27 10 -60 0 -47 3
-60 15 -60 13 0 15 -23 15 -150 0 -127 -2 -150 -15 -150 -12 0 -15 -13 -15
-60 0 -33 -4 -60 -10 -60 -5 0 -10 -16 -10 -35 0 -24 -5 -35 -15 -35 -9 0 -15
-9 -15 -25 0 -14 -4 -25 -10 -25 -5 0 -10 -11 -10 -25 0 -16 -6 -25 -15 -25
-9 0 -15 -9 -15 -25 0 -14 -4 -25 -10 -25 -5 0 -10 -9 -10 -21 0 -22 -22 -49
-39 -49 -6 0 -11 -9 -11 -21 0 -22 -22 -49 -39 -49 -6 0 -11 -5 -11 -11 0 -14
-25 -39 -39 -39 -6 0 -11 -5 -11 -11 0 -14 -25 -39 -39 -39 -6 0 -11 -5 -11
-11 0 -17 -27 -39 -49 -39 -12 0 -21 -5 -21 -11 0 -17 -27 -39 -49 -39 -12 0
-21 -4 -21 -10 0 -5 -11 -10 -25 -10 -16 0 -25 -6 -25 -15 0 -9 -9 -15 -25
-15 -14 0 -25 -4 -25 -10 0 -5 -11 -10 -25 -10 -16 0 -25 -6 -25 -15 0 -10
-11 -15 -35 -15 -19 0 -35 -4 -35 -10 0 -6 -27 -10 -60 -10 -47 0 -60 -3 -60
-15 0 -13 -23 -15 -150 -15 -127 0 -150 2 -150 15 0 12 -13 15 -60 15 -33 0
-60 4 -60 10 0 6 -16 10 -35 10 -24 0 -35 5 -35 15 0 9 -9 15 -25 15 -14 0
-25 5 -25 10 0 6 -11 10 -25 10 -16 0 -25 6 -25 15 0 9 -9 15 -25 15 -14 0
-25 5 -25 10 0 6 -9 10 -21 10 -22 0 -49 22 -49 39 0 6 -9 11 -21 11 -22 0
-49 22 -49 39 0 6 -5 11 -11 11 -14 0 -39 25 -39 39 0 6 -5 11 -11 11 -14 0
-39 25 -39 39 0 6 -5 11 -11 11 -17 0 -39 27 -39 49 0 12 -5 21 -11 21 -17 0
-39 27 -39 49 0 12 -4 21 -10 21 -5 0 -10 11 -10 25 0 16 -6 25 -15 25 -9 0
-15 9 -15 25 0 14 -4 25 -10 25 -5 0 -10 11 -10 25 0 16 -6 25 -15 25 -10 0
-15 11 -15 35 0 19 -4 35 -10 35 -6 0 -10 27 -10 60 0 47 -3 60 -15 60 -13 0
-15 23 -15 150 0 127 2 150 15 150 12 0 15 13 15 60 0 33 4 60 10 60 6 0 10
16 10 35 0 24 5 35 15 35 9 0 15 9 15 25 0 14 5 25 10 25 6 0 10 11 10 25 0
16 6 25 15 25 9 0 15 9 15 25 0 14 5 25 10 25 6 0 10 9 10 21 0 22 22 49 39
49 6 0 11 9 11 21 0 22 22 49 39 49 6 0 11 5 11 11 0 14 25 39 39 39 6 0 11 5
11 11 0 14 25 39 39 39 6 0 11 5 11 11 0 17 27 39 49 39 12 0 21 5 21 11 0 17
27 39 49 39 12 0 21 5 21 10 0 6 11 10 25 10 16 0 25 6 25 15 0 9 9 15 25 15
14 0 25 5 25 10 0 6 11 10 25 10 16 0 25 6 25 15 0 10 11 15 35 15 19 0 35 5
35 10 0 6 27 10 60 10 47 0 60 3 60 15 0 13 23 15 150 15 127 0 150 -2 150
-15z"/>
<path d="M783 1665 c-7 -8 -13 -21 -13 -30 0 -19 23 -45 39 -45 6 0 11 -6 11
-13 0 -7 9 -19 20 -27 11 -8 20 -20 20 -27 0 -7 5 -13 11 -13 14 0 39 -25 39
-39 0 -6 6 -11 13 -11 7 0 19 -9 27 -20 8 -11 20 -20 27 -20 7 0 13 -6 13 -13
0 -7 9 -19 20 -27 11 -8 20 -20 20 -27 0 -7 5 -13 11 -13 14 0 39 -25 39 -39
0 -6 5 -11 11 -11 14 0 39 -25 39 -39 0 -6 7 -11 15 -11 8 0 15 -9 15 -20 0
-11 -7 -20 -15 -20 -8 0 -15 -5 -15 -11 0 -14 -25 -39 -39 -39 -6 0 -11 -5
-11 -11 0 -14 -25 -39 -39 -39 -6 0 -11 -6 -11 -13 0 -7 -9 -19 -20 -27 -11
-8 -20 -20 -20 -27 0 -7 -6 -13 -13 -13 -7 0 -19 -9 -27 -20 -8 -11 -20 -20
-27 -20 -7 0 -13 -5 -13 -11 0 -14 -25 -39 -39 -39 -6 0 -11 -6 -11 -13 0 -7
-9 -19 -20 -27 -11 -8 -20 -20 -20 -27 0 -7 -5 -13 -11 -13 -16 0 -39 -26 -39
-45 0 -21 24 -45 45 -45 19 0 45 23 45 39 0 6 6 11 13 11 7 0 19 9 27 20 8 11
20 20 27 20 7 0 13 5 13 11 0 14 25 39 39 39 6 0 11 6 11 13 0 7 9 19 20 27
11 8 20 20 20 27 0 7 6 13 13 13 7 0 19 9 27 20 8 11 20 20 27 20 7 0 13 5 13
11 0 14 25 39 39 39 6 0 11 5 11 11 0 6 6 17 14 25 8 8 19 14 25 14 6 0 11 7
11 15 0 8 9 15 20 15 11 0 20 -7 20 -15 0 -8 5 -15 11 -15 6 0 17 -6 25 -14 8
-8 14 -19 14 -25 0 -6 5 -11 11 -11 14 0 39 -25 39 -39 0 -6 6 -11 13 -11 7 0
19 -9 27 -20 8 -11 20 -20 27 -20 7 0 13 -6 13 -13 0 -7 9 -19 20 -27 11 -8
20 -20 20 -27 0 -7 5 -13 11 -13 14 0 39 -25 39 -39 0 -6 6 -11 13 -11 7 0 19
-9 27 -20 8 -11 20 -20 27 -20 7 0 13 -5 13 -11 0 -16 26 -39 45 -39 21 0 45
24 45 45 0 19 -23 45 -39 45 -6 0 -11 6 -11 13 0 7 -9 19 -20 27 -11 8 -20 20
-20 27 0 7 -5 13 -11 13 -14 0 -39 25 -39 39 0 6 -6 11 -13 11 -7 0 -19 9 -27
20 -8 11 -20 20 -27 20 -7 0 -13 6 -13 13 0 7 -9 19 -20 27 -11 8 -20 20 -20
27 0 7 -5 13 -11 13 -14 0 -39 25 -39 39 0 6 -5 11 -11 11 -14 0 -39 25 -39
39 0 6 -7 11 -15 11 -8 0 -15 9 -15 20 0 11 7 20 15 20 8 0 15 5 15 11 0 14
25 39 39 39 6 0 11 5 11 11 0 6 6 17 14 25 8 8 19 14 25 14 6 0 11 6 11 13 0
7 9 19 20 27 11 8 20 20 20 27 0 7 6 13 13 13 7 0 19 9 27 20 8 11 20 20 27
20 7 0 13 5 13 11 0 14 25 39 39 39 6 0 11 6 11 13 0 7 9 19 20 27 11 8 20 20
20 27 0 7 5 13 11 13 16 0 39 26 39 45 0 21 -24 45 -45 45 -19 0 -45 -23 -45
-39 0 -6 -6 -11 -13 -11 -7 0 -19 -9 -27 -20 -8 -11 -20 -20 -27 -20 -7 0 -13
-5 -13 -11 0 -14 -25 -39 -39 -39 -6 0 -11 -6 -11 -13 0 -7 -9 -19 -20 -27
-11 -8 -20 -20 -20 -27 0 -7 -6 -13 -13 -13 -7 0 -19 -9 -27 -20 -8 -11 -20
-20 -27 -20 -7 0 -13 -5 -13 -11 0 -14 -25 -39 -39 -39 -6 0 -11 -5 -11 -11 0
-14 -25 -39 -39 -39 -6 0 -11 -7 -11 -15 0 -8 -9 -15 -20 -15 -11 0 -20 7 -20
15 0 8 -5 15 -11 15 -14 0 -39 25 -39 39 0 6 -5 11 -11 11 -14 0 -39 25 -39
39 0 6 -6 11 -13 11 -7 0 -19 9 -27 20 -8 11 -20 20 -27 20 -7 0 -13 6 -13 13
0 7 -9 19 -20 27 -11 8 -20 20 -20 27 0 7 -5 13 -11 13 -14 0 -39 25 -39 39 0
6 -6 11 -13 11 -7 0 -19 9 -27 20 -8 11 -20 20 -27 20 -7 0 -13 5 -13 11 0 33
-54 50 -77 24z"/>
</g>
</svg>
