<?xml version="1.0" standalone="no"?>
<!DOCTYPE svg PUBLIC "-//W3C//DTD SVG 20010904//EN"
 "http://www.w3.org/TR/2001/REC-SVG-20010904/DTD/svg10.dtd">
<svg version="1.0" xmlns="http://www.w3.org/2000/svg"
 width="248.000000pt" height="248.000000pt" viewBox="0 0 248.000000 248.000000"
 preserveAspectRatio="xMidYMid meet">
<metadata>
Created by potrace 1.14, written by Peter Selinger 2001-2017
</metadata>
<g transform="translate(0.000000,248.000000) scale(0.100000,-0.100000)" stroke="none">
<path d="M550 2470 c0 -5 -11 -10 -25 -10 -16 0 -25 -6 -25 -15 0 -8 -7 -15
-15 -15 -9 0 -15 -9 -15 -25 0 -14 -4 -25 -10 -25 -7 0 -10 -280 -10 -820 0
-540 3 -820 10 -820 6 0 10 -11 10 -25 0 -16 6 -25 15 -25 8 0 15 -4 15 -10 0
-5 11 -10 25 -10 16 0 25 -6 25 -15 0 -13 78 -15 645 -15 567 0 645 2 645 15
0 8 9 15 20 15 11 0 20 5 20 10 0 6 7 10 15 10 9 0 15 9 15 25 0 14 5 25 10
25 7 0 10 280 10 820 0 540 -3 820 -10 820 -5 0 -10 11 -10 25 0 16 -6 25 -15
25 -8 0 -15 7 -15 15 0 8 -9 15 -20 15 -11 0 -20 5 -20 10 0 7 -222 10 -645
10 -423 0 -645 -3 -645 -10z m1110 -250 c0 -5 7 -10 15 -10 13 0 15 -29 15
-200 0 -171 -2 -200 -15 -200 -8 0 -15 -4 -15 -10 0 -7 -163 -10 -470 -10
-307 0 -470 3 -470 10 0 6 -7 10 -15 10 -13 0 -15 29 -15 200 0 171 2 200 15
200 8 0 15 5 15 10 0 7 163 10 470 10 307 0 470 -3 470 -10z m-740 -595 c0 -8
5 -15 10 -15 16 0 12 -139 -4 -156 -17 -17 -256 -21 -256 -4 0 6 -7 10 -15 10
-12 0 -15 15 -15 75 0 60 3 75 15 75 8 0 15 7 15 15 0 13 21 15 125 15 104 0
125 -2 125 -15z m390 0 c0 -8 7 -15 15 -15 12 0 15 -15 15 -75 0 -60 -3 -75
-15 -75 -8 0 -15 -4 -15 -10 0 -6 -47 -10 -120 -10 -73 0 -120 4 -120 10 0 6
-7 10 -15 10 -12 0 -15 15 -15 75 0 60 3 75 15 75 8 0 15 7 15 15 0 13 20 15
120 15 100 0 120 -2 120 -15z m400 0 c0 -8 7 -15 15 -15 12 0 15 -15 15 -75 0
-60 -3 -75 -15 -75 -8 0 -15 -4 -15 -10 0 -17 -239 -13 -256 4 -16 17 -20 156
-4 156 6 0 10 7 10 15 0 13 21 15 125 15 104 0 125 -2 125 -15z m-790 -300 c0
-8 5 -15 10 -15 6 0 10 -30 10 -70 0 -40 -4 -70 -10 -70 -5 0 -10 -7 -10 -15
0 -13 -21 -15 -125 -15 -104 0 -125 2 -125 15 0 8 -7 15 -15 15 -12 0 -15 14
-15 70 0 56 3 70 15 70 8 0 15 7 15 15 0 13 21 15 125 15 104 0 125 -2 125
-15z m390 0 c0 -8 7 -15 15 -15 12 0 15 -14 15 -70 0 -56 -3 -70 -15 -70 -8 0
-15 -7 -15 -15 0 -12 -20 -15 -120 -15 -100 0 -120 3 -120 15 0 8 -7 15 -15
15 -12 0 -15 14 -15 70 0 56 3 70 15 70 8 0 15 7 15 15 0 13 20 15 120 15 100
0 120 -2 120 -15z m400 0 c0 -8 7 -15 15 -15 12 0 15 -14 15 -70 0 -56 -3 -70
-15 -70 -8 0 -15 -7 -15 -15 0 -13 -21 -15 -125 -15 -104 0 -125 2 -125 15 0
8 -4 15 -10 15 -6 0 -10 30 -10 70 0 40 4 70 10 70 6 0 10 7 10 15 0 13 21 15
125 15 104 0 125 -2 125 -15z m-784 -299 c16 -17 20 -156 4 -156 -5 0 -10 -7
-10 -15 0 -13 -21 -15 -125 -15 -104 0 -125 2 -125 15 0 8 -7 15 -15 15 -12 0
-15 15 -15 75 0 60 3 75 15 75 8 0 15 5 15 10 0 17 239 13 256 -4z m384 4 c0
-5 7 -10 15 -10 12 0 15 -15 15 -75 0 -60 -3 -75 -15 -75 -8 0 -15 -7 -15 -15
0 -12 -20 -15 -120 -15 -100 0 -120 3 -120 15 0 8 -7 15 -15 15 -12 0 -15 15
-15 75 0 60 3 75 15 75 8 0 15 5 15 10 0 6 47 10 120 10 73 0 120 -4 120 -10z
m400 0 c0 -5 7 -10 15 -10 12 0 15 -15 15 -75 0 -60 -3 -75 -15 -75 -8 0 -15
-7 -15 -15 0 -13 -21 -15 -125 -15 -104 0 -125 2 -125 15 0 8 -4 15 -10 15
-15 0 -13 138 3 155 15 17 257 22 257 5z"/>
<path d="M2060 1775 c0 -8 -7 -15 -15 -15 -13 0 -15 -63 -15 -510 l0 -510 50
0 50 0 0 510 c0 333 -3 510 -10 510 -5 0 -10 7 -10 15 0 9 -9 15 -25 15 -16 0
-25 -6 -25 -15z"/>
<path d="M690 360 c0 -207 2 -240 15 -240 9 0 15 -9 15 -21 0 -22 22 -49 39
-49 6 0 11 -7 11 -15 0 -9 9 -15 25 -15 14 0 25 -4 25 -10 0 -6 130 -10 370
-10 240 0 370 4 370 10 0 6 11 10 25 10 16 0 25 6 25 15 0 8 5 15 11 15 17 0
39 27 39 49 0 12 6 21 15 21 13 0 15 33 15 240 l0 240 -125 0 -125 0 0 -250 0
-250 -125 0 -125 0 0 250 0 250 -250 0 -250 0 0 -240z"/>
</g>
</svg>
