<?xml version="1.0" standalone="no"?>
<!DOCTYPE svg PUBLIC "-//W3C//DTD SVG 20010904//EN"
 "http://www.w3.org/TR/2001/REC-SVG-20010904/DTD/svg10.dtd">
<svg version="1.0" xmlns="http://www.w3.org/2000/svg"
 width="242.000000pt" height="242.000000pt" viewBox="0 0 242.000000 242.000000"
 preserveAspectRatio="xMidYMid meet">
<metadata>
Created by potrace 1.15, written by Peter Selinger 2001-2017
</metadata>
<g transform="translate(0.000000,242.000000) scale(0.100000,-0.100000)"
fill="#000000" stroke="none">
<path d="M1010 2105 c0 -8 -5 -15 -11 -15 -14 0 -39 -25 -39 -39 0 -8 -80 -11
-255 -11 l-255 0 0 -75 0 -75 40 0 40 0 0 -715 c0 -470 3 -715 10 -715 6 0 10
-11 10 -25 0 -16 6 -25 15 -25 8 0 15 -5 15 -11 0 -14 25 -39 39 -39 6 0 11
-7 11 -15 0 -9 9 -15 25 -15 14 0 25 -4 25 -10 0 -7 183 -10 530 -10 347 0
530 3 530 10 0 6 11 10 25 10 14 0 25 5 25 11 0 14 25 39 39 39 6 0 11 7 11
15 0 8 5 15 10 15 6 0 10 11 10 25 0 16 6 25 15 25 13 0 15 86 15 715 l0 715
35 0 35 0 0 75 0 75 -250 0 c-216 0 -250 2 -250 15 0 8 -5 15 -11 15 -14 0
-39 25 -39 39 0 8 -64 11 -200 11 -171 0 -200 -2 -200 -15z m320 -150 c0 -8 5
-15 11 -15 14 0 39 -25 39 -39 0 -8 59 -11 180 -11 l180 0 0 -705 c0 -620 -2
-705 -15 -705 -8 0 -15 -4 -15 -10 0 -7 -174 -10 -501 -10 -420 0 -503 2 -515
14 -12 12 -14 121 -14 715 l0 701 175 0 c149 0 175 2 175 15 0 8 5 15 11 15
14 0 39 25 39 39 0 7 43 11 125 11 104 0 125 -2 125 -15z"/>
<path d="M830 1175 l0 -415 75 0 75 0 0 415 0 415 -75 0 -75 0 0 -415z"/>
<path d="M1130 1175 l0 -415 75 0 75 0 0 415 0 415 -75 0 -75 0 0 -415z"/>
<path d="M1430 1175 l0 -415 80 0 80 0 0 415 0 415 -80 0 -80 0 0 -415z"/>
</g>
</svg>
