<?xml version="1.0" standalone="no"?>
<!DOCTYPE svg PUBLIC "-//W3C//DTD SVG 20010904//EN"
 "http://www.w3.org/TR/2001/REC-SVG-20010904/DTD/svg10.dtd">
<svg version="1.0" xmlns="http://www.w3.org/2000/svg"
 width="264.000000pt" height="264.000000pt" viewBox="0 0 264.000000 264.000000"
 preserveAspectRatio="xMidYMid meet">
<metadata>
Created by potrace 1.14, written by Peter Selinger 2001-2017
</metadata>
<g transform="translate(0.000000,264.000000) scale(0.100000,-0.100000)" stroke="none">
<path d="M210 2415 c0 -9 -9 -15 -25 -15 -14 0 -25 -4 -25 -10 0 -5 -11 -10
-25 -10 -16 0 -25 -6 -25 -15 0 -8 -7 -15 -15 -15 -8 0 -15 -7 -15 -15 0 -8
-7 -15 -15 -15 -9 0 -15 -9 -15 -25 0 -14 -4 -25 -10 -25 -5 0 -10 -11 -10
-25 0 -16 -6 -25 -15 -25 -12 0 -15 -18 -15 -105 0 -87 3 -105 15 -105 10 0
15 -10 15 -30 0 -16 5 -30 10 -30 6 0 10 -11 10 -25 0 -16 6 -25 15 -25 8 0
15 -7 15 -15 0 -8 7 -15 15 -15 8 0 15 -4 15 -10 0 -5 11 -10 25 -10 16 0 25
-6 25 -15 0 -9 9 -15 25 -15 14 0 25 -4 25 -10 0 -6 42 -10 105 -10 63 0 105
4 105 10 0 6 14 10 30 10 20 0 30 5 30 15 0 9 9 15 21 15 22 0 49 22 49 39 0
6 7 11 15 11 9 0 15 9 15 25 0 16 6 25 15 25 10 0 15 10 15 30 0 17 5 30 10
30 6 0 10 42 10 105 0 63 -4 105 -10 105 -5 0 -10 11 -10 25 0 16 -6 25 -15
25 -9 0 -15 9 -15 25 0 16 -6 25 -15 25 -8 0 -15 7 -15 15 0 8 -4 15 -10 15
-5 0 -10 7 -10 15 0 9 -9 15 -25 15 -14 0 -25 5 -25 10 0 6 -13 10 -30 10 -20
0 -30 5 -30 15 0 12 -18 15 -105 15 -87 0 -105 -3 -105 -15z"/>
<path d="M610 1860 c0 -5 -13 -10 -30 -10 -16 0 -30 -5 -30 -11 0 -14 -25 -39
-39 -39 -6 0 -11 -13 -11 -30 0 -16 -4 -30 -10 -30 -6 0 -10 -32 -10 -76 0
-74 11 -104 39 -104 6 0 11 -7 11 -15 0 -8 5 -15 10 -15 6 0 10 -7 10 -15 0
-8 7 -15 15 -15 8 0 15 -4 15 -10 0 -5 7 -10 15 -10 8 0 15 -7 15 -15 0 -9 9
-15 25 -15 14 0 25 -4 25 -10 0 -5 7 -10 15 -10 8 0 15 -7 15 -15 0 -8 5 -15
10 -15 6 0 10 -7 10 -15 0 -8 7 -15 15 -15 8 0 15 -4 15 -10 0 -5 11 -10 25
-10 16 0 25 -6 25 -15 0 -8 7 -15 15 -15 8 0 15 -5 15 -11 0 -19 28 -39 54
-39 16 0 26 -6 26 -15 0 -8 5 -15 10 -15 6 0 10 -7 10 -15 0 -8 7 -15 15 -15
8 0 15 -4 15 -10 0 -5 11 -10 25 -10 16 0 25 -6 25 -15 0 -8 7 -15 15 -15 8 0
15 -4 15 -10 0 -5 7 -10 15 -10 8 0 15 -7 15 -15 0 -9 9 -15 25 -15 16 0 25
-6 25 -15 0 -8 7 -15 15 -15 8 0 15 -4 15 -10 0 -6 77 -10 210 -10 133 0 210
4 210 10 0 6 11 10 25 10 16 0 25 6 25 15 0 11 11 15 40 15 29 0 40 4 40 15 0
9 9 15 25 15 14 0 25 5 25 10 0 6 18 10 40 10 29 0 40 4 40 15 0 9 9 15 25 15
14 0 25 5 25 10 0 6 18 10 40 10 22 0 40 -4 40 -10 0 -5 18 -10 40 -10 29 0
40 -4 40 -15 0 -12 13 -15 55 -15 30 0 55 -4 55 -10 0 -5 23 -10 50 -10 38 0
50 -4 50 -15 0 -12 13 -15 55 -15 42 0 55 -3 55 -15 0 -12 16 -15 80 -15 64 0
80 3 80 15 0 9 9 15 25 15 16 0 25 6 25 15 0 8 5 15 11 15 17 0 39 27 39 49 0
12 6 21 15 21 12 0 15 14 15 70 0 56 -3 70 -15 70 -9 0 -15 9 -15 25 0 14 -4
25 -10 25 -5 0 -10 7 -10 15 0 8 -7 15 -15 15 -8 0 -15 5 -15 10 0 6 -11 10
-25 10 -16 0 -25 6 -25 15 0 11 -11 15 -40 15 -22 0 -40 5 -40 10 0 6 -25 10
-55 10 -42 0 -55 3 -55 15 0 11 -11 15 -40 15 -29 0 -40 4 -40 15 0 11 -12 15
-50 15 -27 0 -50 5 -50 10 0 6 -25 10 -55 10 -42 0 -55 3 -55 15 0 12 -19 15
-115 15 -96 0 -115 -3 -115 -15 0 -11 -11 -15 -40 -15 -22 0 -40 -4 -40 -10 0
-5 -18 -10 -40 -10 -29 0 -40 -4 -40 -15 0 -11 -11 -15 -40 -15 -29 0 -40 -4
-40 -15 0 -11 -11 -15 -40 -15 -22 0 -40 -4 -40 -10 0 -6 -50 -10 -131 -10
-130 0 -159 7 -159 39 0 6 -11 11 -25 11 -16 0 -25 6 -25 15 0 8 -7 15 -15 15
-8 0 -15 5 -15 10 0 6 -7 10 -15 10 -8 0 -15 7 -15 15 0 8 -4 15 -10 15 -5 0
-10 7 -10 15 0 8 -7 15 -15 15 -8 0 -15 5 -15 10 0 6 -11 10 -25 10 -16 0 -25
6 -25 15 0 8 -7 15 -15 15 -8 0 -15 7 -15 15 0 8 -5 15 -11 15 -14 0 -39 25
-39 39 0 6 -13 11 -30 11 -16 0 -30 5 -30 11 0 14 -25 39 -39 39 -6 0 -11 7
-11 15 0 9 -9 15 -25 15 -14 0 -25 5 -25 10 0 6 -28 10 -65 10 -37 0 -65 -4
-65 -10z"/>
<path d="M130 1625 c0 -9 -9 -15 -25 -15 -16 0 -25 -6 -25 -15 0 -8 -5 -15
-11 -15 -19 0 -39 -28 -39 -54 0 -16 -6 -26 -15 -26 -12 0 -15 -15 -15 -75 0
-60 3 -75 15 -75 8 0 15 -7 15 -15 0 -8 5 -15 10 -15 6 0 10 -11 10 -25 0 -21
5 -25 30 -25 20 0 30 -5 30 -15 0 -8 5 -15 10 -15 6 0 10 -7 10 -15 0 -8 5
-15 11 -15 14 0 39 -25 39 -39 0 -6 7 -11 15 -11 8 0 15 -4 15 -10 0 -5 11
-10 25 -10 16 0 25 -6 25 -15 0 -8 7 -15 15 -15 8 0 15 -7 15 -15 0 -8 5 -15
11 -15 14 0 39 -25 39 -39 0 -6 14 -11 30 -11 17 0 30 -5 30 -11 0 -14 25 -39
39 -39 6 0 11 -7 11 -15 0 -8 7 -15 15 -15 8 0 15 -5 15 -11 0 -17 27 -39 49
-39 12 0 21 -6 21 -15 0 -8 7 -15 15 -15 8 0 15 -7 15 -15 0 -8 5 -15 11 -15
14 0 39 -25 39 -39 0 -6 7 -11 15 -11 8 0 15 -4 15 -10 0 -5 11 -10 25 -10 16
0 25 -6 25 -15 0 -8 7 -15 15 -15 8 0 15 -7 15 -15 0 -8 5 -15 11 -15 14 0 39
-25 39 -39 0 -6 7 -11 15 -11 8 0 15 -7 15 -15 0 -9 9 -15 25 -15 14 0 25 -4
25 -10 0 -5 11 -10 25 -10 16 0 25 -6 25 -15 0 -13 95 -15 795 -15 700 0 795
2 795 15 0 9 9 15 25 15 14 0 25 5 25 10 0 6 7 10 15 10 8 0 15 7 15 15 0 8 5
15 10 15 6 0 10 11 10 25 0 16 6 25 15 25 12 0 15 16 15 80 0 64 -3 80 -15 80
-9 0 -15 9 -15 25 0 14 -4 25 -10 25 -5 0 -10 7 -10 15 0 8 -7 15 -15 15 -8 0
-15 7 -15 15 0 9 -9 15 -25 15 -14 0 -25 5 -25 10 0 7 -248 10 -725 10 -638 0
-725 2 -725 15 0 10 -10 15 -30 15 -16 0 -30 5 -30 11 0 19 -28 39 -54 39 -16
0 -26 6 -26 15 0 8 -4 15 -10 15 -5 0 -10 7 -10 15 0 8 -7 15 -15 15 -8 0 -15
5 -15 10 0 6 -7 10 -15 10 -8 0 -15 5 -15 11 0 17 -27 39 -49 39 -12 0 -21 6
-21 15 0 8 -7 15 -15 15 -8 0 -15 7 -15 15 0 8 -5 15 -11 15 -14 0 -39 25 -39
39 0 6 -13 11 -30 11 -16 0 -30 5 -30 11 0 14 -25 39 -39 39 -6 0 -11 7 -11
15 0 8 -7 15 -15 15 -8 0 -15 5 -15 11 0 17 -27 39 -49 39 -12 0 -21 6 -21 15
0 8 -7 15 -15 15 -8 0 -15 5 -15 10 0 6 -7 10 -15 10 -8 0 -15 7 -15 15 0 8
-4 15 -10 15 -5 0 -10 7 -10 15 0 9 -10 15 -26 15 -26 0 -54 20 -54 39 0 6 -7
11 -15 11 -8 0 -15 7 -15 15 0 12 -16 15 -80 15 -64 0 -80 -3 -80 -15z"/>
<path d="M790 515 c0 -8 -4 -15 -10 -15 -5 0 -10 -11 -10 -25 0 -16 -6 -25
-15 -25 -9 0 -15 -9 -15 -25 0 -16 -6 -25 -15 -25 -10 0 -15 -10 -15 -30 0
-16 -4 -30 -10 -30 -5 0 -10 -11 -10 -25 0 -14 5 -25 10 -25 6 0 10 -7 10 -15
0 -13 22 -15 135 -15 113 0 135 2 135 15 0 8 5 15 10 15 6 0 10 7 10 15 0 8 7
15 15 15 9 0 15 9 15 25 0 16 6 25 15 25 9 0 15 9 15 25 0 14 5 25 10 25 6 0
10 14 10 30 l0 30 -90 0 c-53 0 -90 4 -90 10 0 6 -13 10 -30 10 -20 0 -30 5
-30 15 0 9 -9 15 -25 15 -16 0 -25 -6 -25 -15z"/>
<path d="M2510 490 c0 -6 -52 -10 -135 -10 l-135 0 0 -30 c0 -20 5 -30 15 -30
9 0 15 -9 15 -25 0 -16 6 -25 15 -25 9 0 15 -9 15 -25 0 -14 5 -25 10 -25 6 0
10 -7 10 -15 0 -8 7 -15 15 -15 8 0 15 -7 15 -15 0 -13 21 -15 130 -15 109 0
130 2 130 15 0 8 7 15 15 15 11 0 15 11 15 40 0 29 -4 40 -15 40 -9 0 -15 9
-15 25 0 14 -4 25 -10 25 -5 0 -10 14 -10 30 0 20 -5 30 -15 30 -8 0 -15 5
-15 10 0 6 -11 10 -25 10 -14 0 -25 -4 -25 -10z"/>
</g>
</svg>
