<?xml version="1.0" standalone="no"?>
<!DOCTYPE svg PUBLIC "-//W3C//DTD SVG 20010904//EN"
 "http://www.w3.org/TR/2001/REC-SVG-20010904/DTD/svg10.dtd">
<svg version="1.0" xmlns="http://www.w3.org/2000/svg"
 width="235.000000pt" height="235.000000pt" viewBox="0 0 235.000000 235.000000"
 preserveAspectRatio="xMidYMid meet">
<metadata>
Created by potrace 1.15, written by Peter Selinger 2001-2017
</metadata>
<g transform="translate(0.000000,235.000000) scale(0.100000,-0.100000)" stroke="none">
<path d="M1050 2045 c0 -11 -12 -15 -45 -15 -25 0 -45 -4 -45 -10 0 -5 -16
-10 -35 -10 -19 0 -35 -4 -35 -10 0 -5 -11 -10 -25 -10 -14 0 -25 -4 -25 -10
0 -5 -9 -10 -20 -10 -11 0 -20 -7 -20 -15 0 -9 -9 -15 -25 -15 -14 0 -25 -4
-25 -10 0 -5 -8 -10 -18 -10 -10 0 -24 -9 -32 -20 -8 -11 -20 -20 -27 -20 -7
0 -13 -7 -13 -15 0 -8 -8 -15 -18 -15 -10 0 -24 -9 -32 -20 -8 -11 -18 -20
-23 -20 -11 0 -37 -26 -37 -37 0 -5 -9 -15 -20 -23 -11 -8 -20 -22 -20 -32 0
-10 -7 -18 -15 -18 -8 0 -15 -6 -15 -13 0 -7 -9 -19 -20 -27 -11 -8 -20 -22
-20 -32 0 -10 -4 -18 -10 -18 -5 0 -10 -11 -10 -25 0 -16 -6 -25 -15 -25 -8 0
-15 -9 -15 -20 0 -11 -4 -20 -10 -20 -5 0 -10 -11 -10 -25 0 -14 -4 -25 -10
-25 -5 0 -10 -16 -10 -35 0 -19 -4 -35 -10 -35 -5 0 -10 -20 -10 -45 0 -33 -4
-45 -15 -45 -13 0 -15 -27 -15 -180 0 -153 2 -180 15 -180 11 0 15 -12 15 -45
0 -25 5 -45 10 -45 6 0 10 -16 10 -35 0 -19 5 -35 10 -35 6 0 10 -9 10 -20 0
-11 5 -20 10 -20 6 0 10 -11 10 -25 0 -16 6 -25 15 -25 8 0 15 -9 15 -20 0
-11 5 -20 10 -20 6 0 10 -9 10 -20 0 -22 41 -70 60 -70 5 0 10 -9 10 -20 0
-21 61 -90 80 -90 5 0 10 -5 10 -11 0 -16 26 -39 44 -39 9 0 16 -4 16 -10 0
-5 5 -10 11 -10 14 0 39 -25 39 -39 0 -6 9 -11 20 -11 11 0 20 -4 20 -10 0 -5
11 -10 25 -10 14 0 25 -4 25 -10 0 -5 9 -10 20 -10 11 0 20 -4 20 -10 0 -5 11
-10 25 -10 16 0 25 -6 25 -15 0 -10 11 -15 35 -15 19 0 35 -4 35 -10 0 -5 20
-10 45 -10 25 0 45 -4 45 -10 0 -6 67 -10 180 -10 113 0 180 4 180 10 0 6 20
10 45 10 25 0 45 5 45 10 0 6 16 10 35 10 24 0 35 5 35 15 0 8 9 15 20 15 11
0 20 5 20 10 0 6 11 10 25 10 14 0 25 5 25 10 0 6 9 10 20 10 11 0 20 5 20 10
0 6 11 10 25 10 14 0 25 5 25 10 0 17 47 60 65 60 16 0 45 22 45 35 0 8 47 55
55 55 13 0 35 29 35 45 0 18 43 65 60 65 5 0 10 11 10 25 0 14 5 25 10 25 6 0
10 9 10 20 0 11 5 20 10 20 6 0 10 11 10 25 0 14 5 25 10 25 6 0 10 9 10 20 0
11 7 20 15 20 10 0 15 11 15 35 0 19 5 35 10 35 6 0 10 20 10 45 0 25 5 45 10
45 6 0 10 67 10 180 0 113 -4 180 -10 180 -5 0 -10 20 -10 45 0 25 -4 45 -10
45 -5 0 -10 16 -10 35 0 24 -5 35 -15 35 -9 0 -15 9 -15 25 0 14 -4 25 -10 25
-5 0 -10 9 -10 20 0 11 -4 20 -10 20 -5 0 -10 11 -10 25 0 14 -4 25 -10 25 -5
0 -10 9 -10 20 0 11 -5 20 -11 20 -14 0 -39 25 -39 39 0 6 -4 11 -10 11 -5 0
-10 7 -10 16 0 18 -23 44 -39 44 -6 0 -11 5 -11 10 0 19 -69 80 -90 80 -11 0
-20 5 -20 10 0 19 -48 60 -70 60 -11 0 -20 5 -20 10 0 6 -9 10 -20 10 -11 0
-20 7 -20 15 0 9 -9 15 -25 15 -14 0 -25 5 -25 10 0 6 -9 10 -20 10 -11 0 -20
5 -20 10 0 6 -16 10 -35 10 -19 0 -35 5 -35 10 0 6 -20 10 -45 10 -33 0 -45 4
-45 15 0 13 -27 15 -180 15 -153 0 -180 -2 -180 -15z m670 -910 l0 -135 -495
0 -495 0 0 135 0 135 495 0 495 0 0 -135z"/>
</g>
</svg>
