<?xml version="1.0" standalone="no"?>
<!DOCTYPE svg PUBLIC "-//W3C//DTD SVG 20010904//EN"
 "http://www.w3.org/TR/2001/REC-SVG-20010904/DTD/svg10.dtd">
<svg version="1.0" xmlns="http://www.w3.org/2000/svg"
 width="240.000000pt" height="241.000000pt" viewBox="0 0 240.000000 241.000000"
 preserveAspectRatio="xMidYMid meet">
<metadata>
Created by potrace 1.14, written by Peter Selinger 2001-2017
</metadata>
<g transform="translate(0.000000,241.000000) scale(0.100000,-0.100000)"
fill="#000000" stroke="none">
<path d="M1780 2375 c0 -9 -9 -15 -23 -15 -12 0 -29 -9 -37 -20 -8 -11 -20
-20 -27 -20 -7 0 -13 -5 -13 -11 0 -6 -15 -25 -32 -42 -21 -19 -28 -32 -20
-34 6 -3 12 -9 12 -14 0 -13 46 -59 60 -59 5 0 10 -5 10 -10 0 -14 46 -60 60
-60 5 0 10 -5 10 -10 0 -14 46 -60 60 -60 5 0 10 -5 10 -10 0 -12 45 -60 55
-60 8 0 35 -27 35 -35 0 -10 48 -55 60 -55 5 0 10 -5 10 -10 0 -14 46 -60 60
-60 5 0 10 -5 10 -10 0 -6 11 -22 25 -35 13 -14 29 -25 35 -25 5 0 10 -5 10
-10 0 -14 46 -60 59 -60 5 0 11 -6 14 -12 2 -8 15 -1 34 20 17 17 36 32 42 32
6 0 11 6 11 13 0 7 9 19 20 27 13 9 20 26 20 47 0 23 5 33 15 33 12 0 15 13
15 60 0 47 -3 60 -15 60 -8 0 -15 9 -15 20 0 11 -4 20 -10 20 -5 0 -10 9 -10
21 0 19 -21 49 -35 49 -8 0 -35 27 -35 35 0 10 -48 55 -60 55 -5 0 -10 5 -10
10 0 14 -46 60 -60 60 -5 0 -10 5 -10 10 0 12 -45 60 -55 60 -8 0 -35 27 -35
35 0 14 -30 35 -49 35 -12 0 -21 5 -21 10 0 6 -9 10 -20 10 -11 0 -20 7 -20
15 0 12 -14 15 -70 15 -56 0 -70 -3 -70 -15z"/>
<path d="M1480 2120 c0 -5 -5 -10 -11 -10 -11 0 -39 -25 -39 -35 0 -4 -6 -13
-14 -21 -8 -8 -17 -14 -21 -14 -4 0 -13 -6 -21 -14 -8 -8 -14 -17 -14 -21 0
-8 27 -35 35 -35 10 0 55 -48 55 -60 0 -5 5 -10 10 -10 14 0 60 -46 60 -60 0
-5 5 -10 10 -10 14 0 60 -46 60 -60 0 -5 5 -10 10 -10 12 0 60 -45 60 -55 0
-8 27 -35 35 -35 10 0 55 -48 55 -60 0 -5 5 -10 10 -10 6 0 22 -11 35 -25 14
-13 25 -29 25 -35 0 -5 5 -10 10 -10 6 0 22 -11 35 -25 14 -13 25 -29 25 -35
0 -5 5 -10 10 -10 12 0 60 -45 60 -55 0 -8 27 -35 35 -35 8 0 35 27 35 35 0 8
27 35 35 35 8 0 35 27 35 35 0 10 28 35 39 35 6 0 11 5 11 10 0 6 -7 10 -15
10 -8 0 -15 5 -15 10 0 14 -46 60 -60 60 -5 0 -10 5 -10 10 0 12 -45 60 -55
60 -4 0 -13 6 -21 14 -8 8 -14 17 -14 21 0 10 -48 55 -60 55 -5 0 -10 5 -10
10 0 6 -11 22 -25 35 -13 14 -29 25 -35 25 -5 0 -10 5 -10 10 0 14 -46 60 -60
60 -5 0 -10 5 -10 10 0 12 -45 60 -55 60 -4 0 -13 6 -21 14 -8 8 -14 17 -14
21 0 10 -48 55 -60 55 -5 0 -10 5 -10 10 0 23 -50 60 -80 60 -16 0 -30 -4 -30
-10z"/>
<path d="M1250 1890 c0 -5 -5 -10 -11 -10 -11 0 -39 -25 -39 -35 0 -8 -27 -35
-35 -35 -8 0 -35 -27 -35 -35 0 -8 -27 -35 -35 -35 -8 0 -35 -27 -35 -35 0 -8
-47 -55 -55 -55 -8 0 -35 -27 -35 -35 0 -4 -6 -13 -14 -21 -8 -8 -17 -14 -21
-14 -4 0 -13 -6 -21 -14 -8 -8 -14 -17 -14 -21 0 -4 -6 -13 -14 -21 -8 -8 -17
-14 -21 -14 -4 0 -13 -6 -21 -14 -8 -8 -14 -17 -14 -21 0 -4 -6 -13 -14 -21
-8 -8 -17 -14 -21 -14 -8 0 -35 -27 -35 -35 0 -8 -47 -55 -55 -55 -8 0 -35
-27 -35 -35 0 -4 -6 -13 -14 -21 -8 -8 -17 -14 -21 -14 -8 0 -35 -27 -35 -35
0 -8 -27 -35 -35 -35 -8 0 -35 -27 -35 -35 0 -8 -27 -35 -35 -35 -8 0 -35 -27
-35 -35 0 -3 -11 -17 -25 -30 -13 -14 -27 -25 -30 -25 -8 0 -35 -27 -35 -35 0
-8 -27 -35 -35 -35 -8 0 -35 -27 -35 -35 0 -8 -27 -35 -35 -35 -14 0 -35 -30
-35 -49 0 -12 -4 -21 -10 -21 -5 0 -10 -20 -10 -45 0 -33 -4 -45 -15 -45 -10
0 -15 -11 -15 -35 0 -19 -4 -35 -10 -35 -5 0 -10 -20 -10 -45 0 -25 -4 -45
-10 -45 -5 0 -10 -16 -10 -35 0 -19 -4 -35 -10 -35 -5 0 -10 -16 -10 -35 0
-24 -5 -35 -15 -35 -11 0 -15 -12 -15 -45 0 -25 -4 -45 -10 -45 -5 0 -10 -16
-10 -35 0 -19 -4 -35 -10 -35 -5 0 -10 -22 -10 -50 0 -38 -4 -50 -15 -50 -10
0 -15 -10 -15 -30 0 -16 -4 -30 -10 -30 -5 0 -10 -7 -10 -15 0 -8 5 -15 10
-15 6 0 10 -9 10 -20 0 -11 7 -20 15 -20 8 0 15 -7 15 -15 0 -8 9 -15 20 -15
11 0 20 -4 20 -10 0 -5 7 -10 15 -10 8 0 15 5 15 10 0 6 14 10 30 10 20 0 30
5 30 15 0 11 12 15 50 15 28 0 50 5 50 10 0 6 16 10 35 10 19 0 35 5 35 10 0
6 20 10 45 10 33 0 45 4 45 15 0 10 11 15 35 15 19 0 35 5 35 10 0 6 20 10 45
10 25 0 45 5 45 10 0 6 16 10 35 10 19 0 35 5 35 10 0 6 16 10 35 10 24 0 35
5 35 15 0 11 12 15 45 15 25 0 45 5 45 10 0 6 9 10 21 10 19 0 49 21 49 35 0
8 27 35 35 35 8 0 35 27 35 35 0 8 27 35 35 35 8 0 35 27 35 35 0 8 47 55 55
55 8 0 35 27 35 35 0 8 27 35 35 35 8 0 35 27 35 35 0 8 27 35 35 35 8 0 35
27 35 35 0 8 27 35 35 35 8 0 35 27 35 35 0 8 47 55 55 55 8 0 35 27 35 35 0
8 27 35 35 35 8 0 35 27 35 35 0 8 27 35 35 35 8 0 35 27 35 35 0 8 27 35 35
35 8 0 35 27 35 35 0 8 47 55 55 55 8 0 35 27 35 35 0 8 27 35 35 35 8 0 35
27 35 35 0 8 27 35 35 35 10 0 35 28 35 39 0 6 5 11 10 11 6 0 10 9 10 20 0
11 -4 20 -10 20 -5 0 -10 5 -10 11 0 12 -25 39 -37 39 -5 0 -15 9 -23 20 -20
28 -47 25 -80 -10 -15 -16 -33 -30 -39 -30 -6 0 -11 -5 -11 -11 0 -6 -13 -24
-30 -39 -16 -15 -30 -33 -30 -39 0 -6 -5 -11 -10 -11 -14 0 -60 -46 -60 -60 0
-5 -5 -10 -10 -10 -14 0 -60 -46 -60 -60 0 -5 -5 -10 -11 -10 -6 0 -24 -13
-39 -30 -15 -16 -33 -30 -39 -30 -6 0 -11 -5 -11 -11 0 -6 -13 -24 -30 -39
-16 -15 -30 -33 -30 -39 0 -6 -5 -11 -10 -11 -14 0 -60 -46 -60 -60 0 -5 -5
-10 -10 -10 -14 0 -60 -46 -60 -60 0 -5 -5 -10 -11 -10 -6 0 -24 -13 -39 -30
-15 -16 -33 -30 -39 -30 -6 0 -11 -5 -11 -11 0 -6 -13 -24 -30 -39 -16 -15
-30 -33 -30 -39 0 -6 -5 -11 -10 -11 -14 0 -60 -46 -60 -60 0 -5 -5 -10 -10
-10 -14 0 -60 -46 -60 -60 0 -5 -5 -10 -11 -10 -6 0 -24 -13 -39 -30 -15 -16
-33 -30 -39 -30 -6 0 -11 -7 -11 -15 0 -8 -9 -15 -20 -15 -11 0 -20 -4 -20
-10 0 -5 -16 -10 -35 -10 -19 0 -35 -4 -35 -10 0 -5 -20 -10 -45 -10 -33 0
-45 -4 -45 -15 0 -10 -11 -15 -35 -15 -19 0 -35 -4 -35 -10 0 -5 -20 -10 -45
-10 -25 0 -45 -4 -45 -10 0 -5 -16 -10 -35 -10 -19 0 -35 5 -35 10 0 6 -5 10
-11 10 -14 0 -39 25 -39 39 0 6 -4 11 -10 11 -5 0 -10 16 -10 35 0 19 5 35 10
35 6 0 10 20 10 45 0 25 5 45 10 45 6 0 10 16 10 35 0 24 5 35 15 35 11 0 15
12 15 45 0 25 5 45 10 45 6 0 10 16 10 35 0 19 5 35 10 35 6 0 10 9 10 20 0
11 7 20 15 20 8 0 15 5 15 11 0 6 14 24 30 39 17 15 30 33 30 39 0 6 5 11 10
11 14 0 60 46 60 60 0 5 5 10 10 10 14 0 60 46 60 60 0 5 5 10 11 10 6 0 24
14 39 30 15 17 33 30 39 30 6 0 11 5 11 11 0 6 14 24 30 39 17 15 30 33 30 39
0 6 5 11 10 11 6 0 22 11 35 25 14 13 25 29 25 35 0 5 5 10 10 10 14 0 60 46
60 60 0 5 5 10 11 10 6 0 24 14 39 30 15 17 33 30 39 30 6 0 11 5 11 11 0 6
14 24 30 39 17 15 30 33 30 39 0 6 5 11 10 11 14 0 60 46 60 60 0 5 5 10 10
10 14 0 60 46 60 60 0 5 5 10 11 10 6 0 24 14 39 30 15 17 33 30 39 30 6 0 11
5 11 11 0 6 14 24 30 39 35 33 38 60 10 80 -11 8 -20 18 -20 23 0 12 -27 37
-39 37 -6 0 -11 5 -11 10 0 6 -9 10 -20 10 -11 0 -20 -4 -20 -10z"/>
<path d="M1450 1650 c0 -11 -4 -20 -10 -20 -5 0 -10 -5 -10 -11 0 -11 -25 -39
-35 -39 -8 0 -35 -27 -35 -35 0 -10 -48 -55 -60 -55 -5 0 -10 -5 -10 -10 0
-14 -46 -60 -60 -60 -5 0 -10 -5 -10 -10 0 -12 -45 -60 -55 -60 -8 0 -35 -27
-35 -35 0 -8 -27 -35 -35 -35 -8 0 -35 -27 -35 -35 0 -10 -48 -55 -60 -55 -5
0 -10 -5 -10 -10 0 -6 -11 -22 -25 -35 -13 -14 -29 -25 -35 -25 -5 0 -10 -5
-10 -10 0 -12 -45 -60 -55 -60 -8 0 -35 -27 -35 -35 0 -8 -27 -35 -35 -35 -8
0 -35 -27 -35 -35 0 -10 -48 -55 -60 -55 -5 0 -10 -5 -10 -10 0 -6 -11 -22
-25 -35 -13 -14 -29 -25 -35 -25 -5 0 -10 -5 -10 -10 0 -12 -45 -60 -55 -60
-8 0 -35 -27 -35 -35 0 -10 -28 -35 -39 -35 -6 0 -11 -4 -11 -10 0 -6 27 -10
60 -10 47 0 60 -3 60 -15 0 -8 5 -15 10 -15 6 0 10 -9 10 -20 0 -11 7 -20 15
-20 10 0 15 -11 15 -35 0 -40 9 -44 30 -15 8 11 20 20 27 20 7 0 13 5 13 11 0
6 14 24 30 39 17 15 30 33 30 39 0 6 5 11 10 11 14 0 60 46 60 60 0 5 5 10 11
10 6 0 24 14 39 30 15 17 33 30 39 30 6 0 11 5 11 10 0 14 46 60 60 60 5 0 10
5 10 11 0 6 14 24 30 39 17 15 30 33 30 39 0 6 5 11 10 11 6 0 22 11 35 25 14
13 25 29 25 35 0 5 5 10 11 10 6 0 24 14 39 30 15 17 33 30 39 30 6 0 11 5 11
10 0 14 46 60 60 60 5 0 10 5 10 11 0 6 14 24 30 39 17 15 30 33 30 39 0 6 5
11 10 11 14 0 60 46 60 60 0 5 5 10 11 10 6 0 24 14 39 30 15 17 33 30 39 30
6 0 11 5 11 10 0 6 11 22 25 35 13 14 29 25 35 25 5 0 10 5 10 11 0 7 10 21
23 32 15 13 18 21 10 24 -7 3 -13 9 -13 15 0 11 -25 38 -35 38 -4 0 -13 6 -21
14 -8 8 -14 17 -14 21 0 10 -28 35 -39 35 -6 0 -11 5 -11 10 0 6 -16 10 -35
10 -28 0 -35 -4 -35 -20z"/>
</g>
</svg>
