<?xml version="1.0" standalone="no"?>
<!DOCTYPE svg PUBLIC "-//W3C//DTD SVG 20010904//EN"
 "http://www.w3.org/TR/2001/REC-SVG-20010904/DTD/svg10.dtd">
<svg version="1.0" xmlns="http://www.w3.org/2000/svg"
 width="230.000000pt" height="230.000000pt" viewBox="0 0 230.000000 230.000000"
 preserveAspectRatio="xMidYMid meet">
<metadata>
Created by potrace 1.14, written by Peter Selinger 2001-2017
</metadata>
<g transform="translate(0.000000,230.000000) scale(0.100000,-0.100000)"
fill="#000000" stroke="none">
<path d="M60 1260 c0 -587 3 -890 10 -890 6 0 10 -16 10 -35 0 -19 5 -35 10
-35 6 0 10 -9 10 -21 0 -19 21 -49 35 -49 10 0 55 -48 55 -60 0 -5 7 -10 15
-10 8 0 15 -4 15 -10 0 -5 9 -10 20 -10 11 0 20 -4 20 -10 0 -5 16 -10 35 -10
24 0 35 -5 35 -15 0 -13 92 -15 765 -15 673 0 765 2 765 15 0 8 -9 15 -20 15
-11 0 -20 5 -20 10 0 6 -11 10 -25 10 -14 0 -25 5 -25 10 0 6 -9 10 -20 10
-11 0 -20 7 -20 15 0 8 -5 15 -10 15 -19 0 -60 48 -60 70 0 11 -7 20 -15 20
-8 0 -15 9 -15 20 0 11 -4 20 -10 20 -5 0 -10 20 -10 45 0 25 -4 45 -10 45 -7
0 -10 297 -10 870 l0 870 -765 0 -765 0 0 -890z m1210 515 c0 -8 5 -15 10 -15
15 0 12 -29 -4 -46 -12 -12 -91 -14 -490 -14 l-476 0 0 45 0 45 480 0 c420 0
480 -2 480 -15z m6 -189 c16 -17 19 -46 4 -46 -5 0 -10 -7 -10 -15 0 -13 -60
-15 -480 -15 l-480 0 0 45 0 45 476 0 c399 0 478 -2 490 -14z m-576 -361 c0
-8 5 -15 10 -15 15 0 12 -29 -4 -46 -21 -21 -361 -21 -382 0 -16 17 -19 46 -4
46 6 0 10 7 10 15 0 13 27 15 185 15 158 0 185 -2 185 -15z m570 0 c0 -8 5
-15 10 -15 15 0 12 -29 -4 -46 -12 -11 -55 -14 -215 -14 l-201 0 0 45 0 45
205 0 c176 0 205 -2 205 -15z m-564 -189 c16 -17 19 -46 4 -46 -5 0 -10 -7
-10 -15 0 -13 -27 -15 -185 -15 -158 0 -185 2 -185 15 0 8 -4 15 -10 15 -14 0
-12 28 3 45 18 21 362 21 383 1z m570 0 c16 -17 19 -46 4 -46 -5 0 -10 -7 -10
-15 0 -13 -29 -15 -205 -15 l-205 0 0 45 0 45 201 0 c160 0 203 -3 215 -14z
m-570 -180 c8 -8 14 -22 14 -31 0 -40 -21 -45 -205 -45 -184 0 -205 5 -205 45
0 40 18 44 203 45 142 0 181 -3 193 -14z m584 -21 c0 -28 -4 -35 -20 -35 -11
0 -20 -4 -20 -10 0 -6 -67 -10 -181 -10 -143 0 -183 3 -195 14 -8 8 -14 19
-14 25 0 6 -7 11 -15 11 -8 0 -15 5 -15 10 0 6 7 10 15 10 8 0 15 5 15 10 0 6
78 10 215 10 l215 0 0 -35z m-584 -159 c8 -8 14 -22 14 -31 0 -40 -21 -45
-205 -45 -184 0 -205 5 -205 45 0 40 18 44 203 45 142 0 181 -3 193 -14z m584
-21 c0 -28 -4 -35 -20 -35 -11 0 -20 -4 -20 -10 0 -6 -68 -10 -183 -10 -171 0
-183 1 -197 20 -8 11 -20 20 -27 20 -7 0 -13 7 -13 15 0 8 7 15 15 15 8 0 15
5 15 10 0 6 78 10 215 10 l215 0 0 -35z m-14 -139 c8 -8 14 -22 14 -31 0 -41
-20 -45 -229 -45 l-201 0 0 45 0 45 201 0 c160 0 203 -3 215 -14z m-576 -21
c0 -8 5 -15 10 -15 6 0 10 -9 10 -20 0 -11 -4 -20 -10 -20 -5 0 -10 -7 -10
-15 0 -13 -27 -15 -185 -15 -158 0 -185 2 -185 15 0 8 -4 15 -10 15 -5 0 -10
9 -10 20 0 11 5 20 10 20 6 0 10 7 10 15 0 13 27 15 185 15 158 0 185 -2 185
-15z"/>
<path d="M1680 1135 c0 -477 3 -725 10 -725 6 0 10 -13 10 -30 0 -20 5 -30 15
-30 9 0 15 -9 15 -23 0 -12 9 -29 20 -37 11 -8 20 -18 20 -23 0 -12 27 -37 39
-37 6 0 11 -4 11 -10 0 -5 16 -10 35 -10 19 0 35 -4 35 -10 0 -6 40 -10 100
-10 60 0 100 4 100 10 0 6 9 10 20 10 22 0 70 41 70 60 0 5 5 10 11 10 20 0
39 29 39 59 0 17 5 31 10 31 7 0 10 228 10 665 0 437 -3 665 -10 665 -5 0 -10
14 -10 30 0 17 -4 30 -10 30 -5 0 -10 7 -10 15 0 8 -6 15 -13 15 -7 0 -19 9
-27 20 -11 16 -26 20 -67 20 -29 0 -53 -4 -53 -10 0 -5 -11 -10 -25 -10 -20 0
-25 -5 -25 -25 0 -14 -4 -25 -10 -25 -5 0 -10 -9 -10 -20 0 -11 -7 -20 -15
-20 -13 0 -15 -74 -15 -605 0 -397 -3 -605 -10 -605 -5 0 -10 -7 -10 -15 0
-10 -11 -15 -35 -15 l-35 0 0 630 c0 553 2 630 15 630 9 0 15 9 15 25 0 14 5
25 10 25 6 0 10 9 10 20 0 11 5 20 10 20 6 0 10 7 10 15 0 13 -21 15 -125 15
l-125 0 0 -725z"/>
</g>
</svg>
