<?xml version="1.0" standalone="no"?>
<!DOCTYPE svg PUBLIC "-//W3C//DTD SVG 20010904//EN"
 "http://www.w3.org/TR/2001/REC-SVG-20010904/DTD/svg10.dtd">
<svg version="1.0" xmlns="http://www.w3.org/2000/svg"
 width="221.000000pt" height="220.000000pt" viewBox="0 0 221.000000 220.000000"
 preserveAspectRatio="xMidYMid meet">
<metadata>
Created by potrace 1.14, written by Peter Selinger 2001-2017
</metadata>
<g transform="translate(0.000000,220.000000) scale(0.100000,-0.100000)"
fill="#000000" stroke="none">
<path d="M1220 2190 c0 -5 -25 -10 -55 -10 -30 0 -55 -4 -55 -10 0 -5 -25 -10
-55 -10 -42 0 -55 -3 -55 -15 0 -12 -13 -15 -55 -15 -30 0 -55 -4 -55 -10 0
-6 -28 -10 -65 -10 -37 0 -65 -4 -65 -10 0 -5 -25 -10 -55 -10 -30 0 -55 -4
-55 -10 0 -5 -25 -10 -55 -10 -30 0 -55 -4 -55 -10 0 -6 -28 -10 -65 -10 -51
0 -65 -3 -65 -15 0 -12 -13 -15 -55 -15 -30 0 -55 -4 -55 -10 0 -5 -25 -10
-55 -10 -30 0 -55 -4 -55 -10 0 -5 -25 -10 -55 -10 -30 0 -55 -4 -55 -10 0 -5
-16 -10 -35 -10 l-35 0 0 -860 0 -860 35 0 c19 0 35 -4 35 -10 0 -5 25 -10 55
-10 30 0 55 -4 55 -10 0 -5 25 -10 55 -10 30 0 55 -4 55 -10 0 -5 25 -10 55
-10 42 0 55 -3 55 -15 0 -12 14 -15 65 -15 37 0 65 -4 65 -10 0 -5 25 -10 55
-10 30 0 55 -4 55 -10 0 -5 25 -10 55 -10 30 0 55 -4 55 -10 0 -6 28 -10 65
-10 37 0 65 -4 65 -10 0 -5 25 -10 55 -10 42 0 55 -3 55 -15 0 -12 13 -15 55
-15 30 0 55 -4 55 -10 0 -5 25 -10 55 -10 30 0 55 -4 55 -10 0 -15 80 -12 96
4 21 22 21 2150 0 2172 -16 16 -96 19 -96 4z m-694 -684 c8 -8 14 -19 14 -25
0 -6 5 -11 10 -11 6 0 10 -9 10 -20 0 -11 5 -20 10 -20 6 0 10 -9 10 -20 0
-11 5 -20 10 -20 6 0 10 -11 10 -25 0 -16 6 -25 15 -25 10 0 15 -10 15 -30 0
-16 5 -30 10 -30 6 0 10 -9 10 -21 0 -19 21 -49 34 -49 3 0 6 16 6 35 0 19 5
35 10 35 6 0 10 9 10 20 0 11 7 20 15 20 8 0 15 9 15 20 0 11 5 20 10 20 6 0
10 7 10 15 0 8 5 15 10 15 6 0 10 9 10 20 0 11 5 20 10 20 6 0 10 9 10 20 0
11 5 20 10 20 6 0 10 11 10 25 l0 25 100 0 100 0 0 -25 c0 -14 -4 -25 -10 -25
-5 0 -10 -9 -10 -20 0 -11 -4 -20 -10 -20 -5 0 -10 -9 -10 -20 0 -11 -4 -20
-10 -20 -5 0 -10 -7 -10 -15 0 -8 -7 -15 -15 -15 -8 0 -15 -9 -15 -20 0 -11
-4 -20 -10 -20 -5 0 -10 -9 -10 -20 0 -11 -4 -20 -10 -20 -5 0 -10 -7 -10 -15
0 -8 -4 -15 -10 -15 -5 0 -10 -9 -10 -20 0 -11 -4 -20 -10 -20 -5 0 -10 -9
-10 -20 0 -11 -7 -20 -15 -20 -8 0 -15 -7 -15 -15 0 -8 -4 -15 -10 -15 -5 0
-10 -18 -10 -40 0 -22 5 -40 10 -40 6 0 10 -7 10 -15 0 -8 7 -15 15 -15 8 0
15 -8 15 -18 0 -10 9 -24 20 -32 11 -8 20 -25 20 -37 0 -13 5 -23 10 -23 6 0
10 -7 10 -16 0 -18 23 -44 39 -44 6 0 11 -11 11 -25 0 -14 5 -25 10 -25 6 0
10 -8 10 -18 0 -10 9 -24 20 -32 11 -8 20 -25 20 -37 0 -13 5 -23 10 -23 6 0
10 -4 10 -10 0 -6 -42 -10 -106 -10 -112 0 -134 8 -134 49 0 12 -4 21 -10 21
-5 0 -10 9 -10 20 0 11 -4 20 -10 20 -5 0 -10 11 -10 25 0 14 -4 25 -10 25 -5
0 -10 9 -10 20 0 11 -7 20 -15 20 -8 0 -15 9 -15 20 0 11 -4 20 -10 20 -5 0
-10 9 -10 21 0 19 -21 49 -34 49 -3 0 -6 -9 -6 -20 0 -11 -4 -20 -10 -20 -5 0
-10 -11 -10 -25 0 -16 -6 -25 -15 -25 -8 0 -15 -9 -15 -20 0 -11 -4 -20 -10
-20 -5 0 -10 -11 -10 -25 0 -14 -4 -25 -10 -25 -5 0 -10 -9 -10 -20 0 -11 -4
-20 -10 -20 -5 0 -10 -9 -10 -20 0 -11 -4 -20 -10 -20 -5 0 -10 -7 -10 -15 0
-8 -7 -15 -15 -15 -8 0 -15 -4 -15 -10 0 -6 -38 -10 -95 -10 -95 0 -95 0 -95
25 0 14 5 25 10 25 6 0 10 8 10 18 0 10 9 24 20 32 11 8 20 23 20 33 0 20 22
47 39 47 6 0 11 8 11 18 0 10 9 24 20 32 11 8 20 25 20 37 0 13 5 23 10 23 6
0 10 7 10 16 0 18 23 44 39 44 6 0 11 11 11 25 0 14 5 25 10 25 6 0 10 9 10
20 0 11 -4 20 -10 20 -5 0 -10 11 -10 25 0 16 -6 25 -15 25 -8 0 -15 8 -15 18
0 10 -9 24 -20 32 -11 8 -20 25 -20 37 0 13 -4 23 -10 23 -5 0 -10 9 -10 20 0
11 -4 20 -10 20 -5 0 -10 9 -10 20 0 11 -7 20 -15 20 -8 0 -15 7 -15 15 0 8
-4 15 -10 15 -5 0 -10 9 -10 20 0 11 -4 20 -10 20 -5 0 -10 9 -10 20 0 11 -4
20 -10 20 -5 0 -10 11 -10 25 0 25 0 25 96 25 69 0 99 -4 110 -14z"/>
<path d="M1420 1785 l0 -155 45 0 45 0 0 -45 0 -45 -45 0 -45 0 0 -110 0 -110
45 0 45 0 0 -45 0 -45 -45 0 -45 0 0 -110 0 -110 45 0 45 0 0 -45 0 -45 -45 0
-45 0 0 -130 0 -130 45 0 45 0 0 -45 0 -45 -45 0 -45 0 0 -155 0 -155 350 0
c242 0 350 3 350 11 0 14 25 39 39 39 8 0 11 235 11 790 0 555 -3 790 -11 790
-14 0 -39 25 -39 39 0 8 -108 11 -350 11 l-350 0 0 -155z m530 -200 l0 -45
-180 0 -180 0 0 45 0 45 180 0 180 0 0 -45z m0 -310 l0 -45 -180 0 -180 0 0
45 0 45 180 0 180 0 0 -45z m0 -310 l0 -45 -180 0 -180 0 0 45 0 45 180 0 180
0 0 -45z m0 -350 l0 -45 -180 0 -180 0 0 45 0 45 180 0 180 0 0 -45z"/>
</g>
</svg>
