<?xml version="1.0" standalone="no"?>
<!DOCTYPE svg PUBLIC "-//W3C//DTD SVG 20010904//EN"
 "http://www.w3.org/TR/2001/REC-SVG-20010904/DTD/svg10.dtd">
<svg version="1.0" xmlns="http://www.w3.org/2000/svg"
 width="266.000000pt" height="266.000000pt" viewBox="0 0 266.000000 266.000000"
 preserveAspectRatio="xMidYMid meet">
<metadata>
Created by potrace 1.15, written by Peter Selinger 2001-2017
</metadata>
<g transform="translate(0.000000,266.000000) scale(0.100000,-0.100000)"
fill="#000000" stroke="none">
<path d="M980 2645 c0 -9 -9 -15 -25 -15 -14 0 -25 -4 -25 -10 0 -5 -18 -10
-40 -10 -29 0 -40 -4 -40 -15 0 -9 -9 -15 -25 -15 -16 0 -25 -6 -25 -15 0 -11
-11 -15 -40 -15 -22 0 -40 -4 -40 -10 0 -5 -11 -10 -25 -10 -16 0 -25 -6 -25
-15 0 -10 -10 -15 -30 -15 -16 0 -30 -5 -30 -11 0 -14 -25 -39 -39 -39 -6 0
-11 -13 -11 -30 0 -20 5 -30 15 -30 9 0 15 -9 15 -25 0 -14 5 -25 10 -25 6 0
10 -7 10 -15 0 -8 7 -15 15 -15 8 0 15 -4 15 -10 0 -5 11 -10 25 -10 14 0 25
5 25 10 0 6 11 10 25 10 20 0 25 -5 25 -25 0 -24 3 -25 55 -25 42 0 55 3 55
15 0 9 9 15 25 15 14 0 25 5 25 10 0 6 14 10 30 10 20 0 30 5 30 15 0 11 11
15 40 15 28 0 40 4 40 14 0 8 6 17 13 20 10 5 10 7 0 12 -7 3 -13 19 -13 35 0
24 4 29 25 29 14 0 25 5 25 10 0 6 7 10 15 10 12 0 15 14 15 70 0 56 -3 70
-15 70 -8 0 -15 5 -15 10 0 6 -7 10 -15 10 -8 0 -15 7 -15 15 0 11 -11 15 -40
15 -29 0 -40 -4 -40 -15z"/>
<path d="M1120 2275 c0 -10 -10 -15 -30 -15 -20 0 -30 -5 -30 -15 0 -11 -11
-15 -40 -15 -22 0 -40 -4 -40 -10 0 -5 -11 -10 -25 -10 -16 0 -25 -6 -25 -15
0 -11 -11 -15 -40 -15 -29 0 -40 -4 -40 -15 0 -9 -9 -15 -25 -15 -14 0 -25 -4
-25 -10 0 -5 -13 -10 -30 -10 -20 0 -30 -5 -30 -15 0 -8 -4 -15 -10 -15 -5 0
-10 -25 -10 -55 0 -30 5 -55 10 -55 6 0 10 -16 10 -35 0 -24 5 -35 15 -35 10
0 15 -10 15 -30 0 -20 5 -30 15 -30 9 0 15 -9 15 -25 0 -14 5 -25 10 -25 6 0
10 -18 10 -40 0 -29 4 -40 15 -40 9 0 15 -9 15 -25 0 -16 6 -25 15 -25 11 0
15 -11 15 -40 0 -22 5 -40 10 -40 6 0 10 -13 10 -30 0 -20 5 -30 15 -30 11 0
15 -11 15 -40 0 -28 4 -40 14 -40 8 0 17 -6 20 -12 5 -10 7 -10 12 0 3 6 23
12 45 12 28 0 39 4 39 15 0 10 10 15 30 15 20 0 30 5 30 15 0 11 11 15 40 15
22 0 40 5 40 10 0 6 11 10 25 10 16 0 25 6 25 15 0 11 11 15 40 15 29 0 40 4
40 15 0 9 9 15 25 15 14 0 25 5 25 10 0 6 18 10 40 10 29 0 40 4 40 15 0 8 7
15 15 15 9 0 15 9 15 25 0 16 -6 25 -15 25 -10 0 -15 10 -15 30 0 17 -4 30
-10 30 -5 0 -10 18 -10 40 0 29 -4 40 -15 40 -9 0 -15 9 -15 25 0 16 -6 25
-15 25 -9 0 -15 9 -15 25 0 14 -4 25 -10 25 -5 0 -10 18 -10 40 0 29 -4 40
-15 40 -9 0 -15 9 -15 25 0 16 -6 25 -15 25 -11 0 -15 11 -15 40 0 22 -4 40
-10 40 -5 0 -10 14 -10 30 0 20 -5 30 -15 30 -9 0 -15 9 -15 25 0 16 -6 25
-15 25 -8 0 -15 7 -15 15 0 11 -12 15 -50 15 -38 0 -50 -4 -50 -15z"/>
<path d="M610 1905 c0 -8 -4 -15 -10 -15 -5 0 -10 -7 -10 -15 0 -8 -7 -15 -15
-15 -8 0 -15 -4 -15 -10 0 -5 -7 -10 -15 -10 -8 0 -15 -7 -15 -15 0 -8 -4 -15
-10 -15 -5 0 -10 -7 -10 -15 0 -8 -7 -15 -15 -15 -9 0 -15 -9 -15 -25 0 -16
-6 -25 -15 -25 -8 0 -15 -7 -15 -15 0 -8 -4 -15 -10 -15 -5 0 -10 -18 -10 -40
0 -29 -4 -40 -15 -40 -11 0 -15 -12 -15 -50 0 -38 -4 -50 -15 -50 -12 0 -15
-16 -15 -80 0 -64 3 -80 15 -80 11 0 15 -11 15 -40 0 -29 4 -40 15 -40 11 0
15 -11 15 -40 0 -22 5 -40 10 -40 6 0 10 -13 10 -30 0 -20 5 -30 15 -30 9 0
15 -9 15 -25 0 -20 5 -25 25 -25 16 0 25 6 25 15 0 8 7 15 15 15 8 0 15 5 15
10 0 6 11 10 25 10 16 0 25 6 25 15 0 8 7 15 15 15 8 0 15 7 15 15 0 11 11 15
40 15 22 0 40 5 40 10 0 6 28 10 65 10 l65 0 0 30 c0 20 -5 30 -15 30 -9 0
-15 9 -15 25 0 14 -4 25 -10 25 -5 0 -10 18 -10 40 0 29 -4 40 -15 40 -11 0
-15 11 -15 40 0 29 4 40 15 40 12 0 15 13 15 55 0 42 -3 55 -15 55 -9 0 -15 9
-15 25 0 16 -6 25 -15 25 -9 0 -15 9 -15 25 0 14 -4 25 -10 25 -5 0 -10 18
-10 40 0 29 -4 40 -15 40 -10 0 -15 10 -15 30 0 17 -4 30 -10 30 -5 0 -10 18
-10 40 0 38 -2 40 -30 40 -20 0 -30 -5 -30 -15z"/>
<path d="M1460 1530 c0 -5 -11 -10 -25 -10 -16 0 -25 -6 -25 -15 0 -11 -11
-15 -40 -15 -29 0 -40 -4 -40 -15 0 -9 -9 -15 -25 -15 -14 0 -25 -4 -25 -10 0
-5 -18 -10 -40 -10 -29 0 -40 -4 -40 -15 0 -10 -10 -15 -30 -15 -20 0 -30 -5
-30 -15 0 -11 -11 -15 -40 -15 -22 0 -40 -4 -40 -10 0 -5 -11 -10 -25 -10 -22
0 -25 -4 -25 -40 0 -29 4 -40 15 -40 8 0 15 -7 15 -15 0 -8 5 -15 10 -15 6 0
10 -7 10 -15 0 -10 10 -15 30 -15 17 0 30 -4 30 -10 0 -5 11 -10 25 -10 16 0
25 -6 25 -15 0 -12 14 -15 65 -15 51 0 65 3 65 15 0 10 10 15 30 15 17 0 30 5
30 10 0 6 18 10 40 10 29 0 40 4 40 15 0 9 9 15 25 15 16 0 25 6 25 15 0 8 7
15 15 15 11 0 15 11 15 40 0 22 5 40 10 40 6 0 10 11 10 25 0 16 6 25 15 25
11 0 15 11 15 40 0 29 -4 40 -15 40 -9 0 -15 9 -15 25 0 23 -4 25 -40 25 -22
0 -40 -4 -40 -10z"/>
<path d="M1840 1185 c0 -10 -10 -15 -30 -15 -20 0 -30 -5 -30 -15 0 -11 -11
-15 -40 -15 -22 0 -40 -4 -40 -10 0 -5 -11 -10 -25 -10 -16 0 -25 -6 -25 -15
0 -11 -11 -15 -40 -15 -29 0 -40 -4 -40 -15 0 -9 -9 -15 -25 -15 -14 0 -25 -4
-25 -10 0 -5 -18 -10 -40 -10 -29 0 -40 -4 -40 -15 0 -10 -10 -15 -30 -15 -20
0 -30 -5 -30 -15 0 -9 -9 -15 -25 -15 -14 0 -25 -4 -25 -10 0 -5 -18 -10 -40
-10 -29 0 -40 -4 -40 -15 0 -11 -11 -15 -40 -15 -29 0 -40 4 -40 15 0 8 -5 15
-11 15 -14 0 -39 25 -39 39 0 6 -7 11 -15 11 -8 0 -15 7 -15 15 0 8 -5 15 -11
15 -14 0 -39 25 -39 39 0 6 -18 11 -40 11 -29 0 -40 4 -40 15 0 12 -19 15
-110 15 -91 0 -110 -3 -110 -15 0 -10 -11 -15 -35 -15 -24 0 -35 -5 -35 -15 0
-8 -7 -15 -15 -15 -8 0 -15 -4 -15 -10 0 -5 -7 -10 -15 -10 -8 0 -15 -7 -15
-15 0 -8 -4 -15 -10 -15 -5 0 -10 -7 -10 -15 0 -8 -7 -15 -15 -15 -8 0 -15 -4
-15 -10 0 -5 -7 -10 -15 -10 -8 0 -15 -7 -15 -15 0 -8 -4 -15 -10 -15 -5 0
-10 -18 -10 -40 0 -29 -4 -40 -15 -40 -12 0 -15 -18 -15 -105 0 -87 3 -105 15
-105 11 0 15 -11 15 -40 0 -22 5 -40 10 -40 6 0 10 -7 10 -15 0 -8 7 -15 15
-15 8 0 15 -4 15 -10 0 -5 7 -10 15 -10 8 0 15 -7 15 -15 0 -8 5 -15 10 -15 6
0 10 -7 10 -15 0 -8 7 -15 15 -15 8 0 15 -4 15 -10 0 -5 7 -10 15 -10 8 0 15
-7 15 -15 0 -10 11 -15 35 -15 24 0 35 -5 35 -15 0 -12 19 -15 110 -15 91 0
110 3 110 15 0 11 11 15 40 15 22 0 40 5 40 11 0 14 25 39 39 39 6 0 11 7 11
15 0 8 7 15 15 15 8 0 15 5 15 11 0 6 6 17 14 25 8 8 19 14 25 14 6 0 11 7 11
15 0 8 7 15 15 15 11 0 15 11 15 40 0 22 5 40 10 40 6 0 10 37 10 90 l0 90 30
0 c20 0 30 5 30 15 0 9 9 15 25 15 16 0 25 6 25 15 0 11 11 15 40 15 22 0 40
5 40 10 0 6 11 10 25 10 16 0 25 6 25 15 0 11 11 15 40 15 29 0 40 4 40 15 0
10 10 15 30 15 17 0 30 5 30 10 0 6 18 10 40 10 29 0 40 4 40 15 0 9 9 15 25
15 16 0 25 6 25 15 0 9 9 15 25 15 14 0 25 5 25 10 0 6 18 10 40 10 29 0 40 4
40 15 0 10 10 15 30 15 20 0 30 5 30 15 0 8 5 15 10 15 6 0 10 18 10 40 l0 40
-50 0 c-38 0 -50 -4 -50 -15z"/>
<path d="M1810 675 c0 -11 -11 -15 -40 -15 -22 0 -40 -4 -40 -10 0 -5 -11 -10
-25 -10 -16 0 -25 -6 -25 -15 0 -11 -11 -15 -40 -15 -22 0 -40 -4 -40 -10 0
-5 -13 -10 -30 -10 -20 0 -30 -5 -30 -15 0 -11 -11 -15 -40 -15 -29 0 -40 -4
-40 -15 0 -11 -11 -15 -40 -15 -22 0 -40 -4 -40 -10 0 -5 -11 -10 -25 -10 -16
0 -25 -6 -25 -15 0 -11 -11 -15 -40 -15 -29 0 -40 -4 -40 -15 0 -8 -5 -15 -11
-15 -14 0 -39 -25 -39 -39 0 -6 -7 -11 -15 -11 -8 0 -15 -7 -15 -15 0 -13 57
-15 450 -15 l450 0 0 30 c0 20 5 30 15 30 12 0 15 16 15 80 0 64 -3 80 -15 80
-9 0 -15 9 -15 21 0 26 -23 49 -49 49 -12 0 -21 6 -21 15 0 12 -17 15 -95 15
-78 0 -95 -3 -95 -15z"/>
<path d="M480 255 c0 -9 -9 -15 -25 -15 -16 0 -25 -6 -25 -15 0 -8 -7 -15 -15
-15 -9 0 -15 -9 -15 -25 0 -16 -6 -25 -15 -25 -12 0 -15 -14 -15 -65 0 -51 3
-65 15 -65 8 0 15 -7 15 -15 0 -13 110 -15 930 -15 820 0 930 2 930 15 0 8 7
15 15 15 12 0 15 14 15 65 0 51 -3 65 -15 65 -9 0 -15 9 -15 25 0 16 -6 25
-15 25 -8 0 -15 7 -15 15 0 9 -9 15 -25 15 -16 0 -25 6 -25 15 0 13 -101 15
-850 15 -749 0 -850 -2 -850 -15z"/>
</g>
</svg>
