<?xml version="1.0" standalone="no"?>
<!DOCTYPE svg PUBLIC "-//W3C//DTD SVG 20010904//EN"
 "http://www.w3.org/TR/2001/REC-SVG-20010904/DTD/svg10.dtd">
<svg version="1.0" xmlns="http://www.w3.org/2000/svg"
 width="200.000000pt" height="201.000000pt" viewBox="0 0 200.000000 201.000000"
 preserveAspectRatio="xMidYMid meet">
<metadata>
Created by potrace 1.14, written by Peter Selinger 2001-2017
</metadata>
<g transform="translate(0.000000,201.000000) scale(0.100000,-0.100000)"
fill="#000000" stroke="none">
<path d="M840 2000 c0 -5 -22 -10 -50 -10 -27 0 -50 -4 -50 -10 0 -5 -13 -10
-30 -10 -16 0 -30 -4 -30 -10 0 -5 -13 -10 -30 -10 -16 0 -30 -4 -30 -10 0 -5
-8 -10 -18 -10 -10 0 -24 -9 -32 -20 -8 -11 -20 -20 -27 -20 -8 0 -34 -20 -58
-45 -43 -43 -45 -47 -45 -105 l0 -61 -80 -79 c-44 -44 -80 -85 -80 -92 0 -8
-9 -20 -20 -28 -11 -8 -20 -21 -20 -30 0 -9 -9 -22 -20 -30 -11 -8 -20 -22
-20 -32 0 -10 -4 -18 -10 -18 -5 0 -10 -9 -10 -20 0 -11 -4 -20 -10 -20 -5 0
-10 -9 -10 -20 0 -11 -4 -20 -10 -20 -5 0 -10 -13 -10 -30 0 -16 -4 -30 -10
-30 -5 0 -10 -13 -10 -30 0 -16 -4 -30 -10 -30 -5 0 -10 -13 -10 -30 0 -16 -4
-30 -10 -30 -5 0 -10 -13 -10 -30 0 -16 -4 -30 -10 -30 -5 0 -10 -22 -10 -50
0 -27 -4 -50 -10 -50 -5 0 -10 -22 -10 -50 0 -27 -4 -50 -10 -50 -6 0 -10 -30
-10 -70 0 -40 -4 -70 -10 -70 -6 0 -10 -99 -10 -276 0 -225 3 -278 14 -290 12
-11 63 -14 280 -14 171 0 266 -4 266 -10 0 -6 27 -10 60 -10 33 0 60 -4 60
-10 0 -5 18 -10 40 -10 22 0 40 -4 40 -10 0 -5 14 -10 30 -10 17 0 30 -4 30
-10 0 -5 9 -10 20 -10 11 0 20 -4 20 -10 0 -5 14 -10 30 -10 17 0 30 -4 30
-10 0 -6 33 -10 80 -10 47 0 80 4 80 10 0 6 14 10 30 10 17 0 30 5 30 10 0 6
9 10 20 10 11 0 20 5 20 10 0 6 14 10 30 10 17 0 30 5 30 10 0 6 18 10 40 10
22 0 40 5 40 10 0 6 27 10 60 10 33 0 60 4 60 10 0 6 95 10 266 10 217 0 268
3 280 14 11 12 14 66 14 300 0 184 -4 286 -10 286 -6 0 -10 30 -10 70 0 40 -4
70 -10 70 -5 0 -10 23 -10 50 0 28 -4 50 -10 50 -5 0 -10 18 -10 40 0 22 -4
40 -10 40 -5 0 -10 14 -10 30 0 17 -4 30 -10 30 -5 0 -10 14 -10 30 0 17 -4
30 -10 30 -5 0 -10 9 -10 20 0 11 -4 20 -10 20 -5 0 -10 14 -10 30 0 17 -4 30
-10 30 -5 0 -10 9 -10 20 0 11 -4 20 -10 20 -5 0 -10 9 -10 20 0 11 -4 20 -10
20 -5 0 -10 9 -10 20 0 11 -4 20 -10 20 -5 0 -10 8 -10 18 0 10 -9 24 -20 32
-11 8 -20 21 -20 28 0 7 -18 31 -40 52 -22 21 -40 43 -40 50 0 16 -67 80 -85
80 -12 0 -15 14 -15 75 l0 76 -45 44 c-24 25 -50 45 -58 45 -7 0 -19 9 -27 20
-8 11 -22 20 -32 20 -10 0 -18 5 -18 10 0 6 -13 10 -30 10 -16 0 -30 5 -30 10
0 6 -13 10 -30 10 -16 0 -30 5 -30 10 0 6 -22 10 -50 10 -27 0 -50 5 -50 10 0
6 -60 10 -160 10 -100 0 -160 -4 -160 -10z m280 -80 c0 -6 27 -10 60 -10 33 0
60 -4 60 -10 0 -5 14 -10 30 -10 17 0 30 -4 30 -10 0 -5 9 -10 20 -10 11 0 20
-4 20 -10 0 -5 9 -10 20 -10 11 0 20 -4 20 -10 0 -5 7 -10 15 -10 26 0 85 -66
85 -95 0 -14 -4 -25 -10 -25 -6 0 -10 -33 -10 -80 0 -47 -4 -80 -10 -80 -6 0
-10 -37 -10 -90 0 -53 -4 -90 -10 -90 -5 0 -10 -12 -10 -26 0 -40 -22 -54 -84
-54 -31 0 -56 -4 -56 -10 0 -6 -103 -10 -290 -10 -187 0 -290 4 -290 10 0 6
-21 10 -46 10 -55 0 -74 16 -74 64 0 20 -4 36 -10 36 -6 0 -10 33 -10 80 0 47
-4 80 -10 80 -6 0 -10 37 -10 90 0 53 -4 90 -10 90 -5 0 -10 7 -10 15 0 20 65
85 85 85 8 0 15 5 15 10 0 6 9 10 20 10 11 0 20 5 20 10 0 6 9 10 20 10 11 0
20 5 20 10 0 6 14 10 30 10 17 0 30 5 30 10 0 6 23 10 50 10 28 0 50 5 50 10
0 6 50 10 130 10 80 0 130 -4 130 -10z m200 -750 c0 -11 5 -20 10 -20 6 0 10
-8 10 -18 0 -10 9 -24 20 -32 11 -8 20 -20 20 -27 0 -19 126 -143 145 -143 8
0 15 -4 15 -10 0 -5 18 -10 40 -10 33 0 40 -3 40 -20 0 -11 5 -20 10 -20 6 0
10 -20 10 -45 0 -39 -5 -51 -35 -80 -19 -19 -44 -35 -55 -35 -29 0 -50 -23
-50 -54 0 -14 -4 -26 -10 -26 -5 0 -10 -9 -10 -20 0 -11 -4 -20 -10 -20 -5 0
-10 -9 -10 -20 0 -11 -4 -20 -10 -20 -5 0 -10 -13 -10 -30 0 -16 -4 -30 -10
-30 -5 0 -10 -9 -10 -20 0 -11 -4 -20 -10 -20 -5 0 -10 -8 -10 -18 0 -10 -9
-24 -20 -32 -11 -8 -20 -22 -20 -32 0 -10 -4 -18 -10 -18 -5 0 -10 -7 -10 -16
0 -9 -13 -29 -30 -44 -16 -15 -30 -33 -30 -39 0 -16 -66 -81 -82 -81 -8 0 -20
-9 -28 -20 -8 -11 -22 -20 -32 -20 -10 0 -18 -4 -18 -10 0 -5 -9 -10 -20 -10
-11 0 -20 -4 -20 -10 0 -6 -33 -10 -80 -10 -47 0 -80 4 -80 10 0 6 -9 10 -20
10 -11 0 -20 5 -20 10 0 6 -8 10 -18 10 -10 0 -24 9 -32 20 -8 11 -20 20 -28
20 -16 0 -82 65 -82 81 0 6 -14 24 -30 39 -16 15 -30 35 -30 44 0 9 -4 16 -10
16 -5 0 -10 9 -10 20 0 11 -4 20 -10 20 -5 0 -10 9 -10 20 0 11 -4 20 -10 20
-5 0 -10 9 -10 20 0 11 -4 20 -10 20 -5 0 -10 9 -10 20 0 11 -4 20 -10 20 -5
0 -10 9 -10 20 0 11 -4 20 -10 20 -5 0 -10 9 -10 20 0 11 -4 20 -10 20 -5 0
-10 14 -10 30 0 17 -4 30 -10 30 -5 0 -10 7 -10 16 0 22 -25 44 -50 44 -11 0
-36 16 -55 35 -29 28 -35 42 -35 75 0 62 14 70 124 70 57 0 96 4 96 10 0 6 27
10 60 10 33 0 60 4 60 10 0 6 14 10 30 10 17 0 30 5 30 10 0 6 14 10 30 10 17
0 30 5 30 10 0 6 9 10 20 10 11 0 20 5 20 10 0 6 9 10 20 10 11 0 20 5 20 10
0 6 7 10 16 10 9 0 29 14 44 30 15 17 33 30 39 30 15 0 81 66 81 80 0 32 26
39 133 40 100 0 107 -1 107 -20z"/>
<path d="M960 1690 l0 -80 -80 0 -80 0 0 -40 0 -40 80 0 80 0 0 -80 0 -80 40
0 40 0 0 80 0 80 80 0 80 0 0 40 0 40 -80 0 -80 0 0 80 0 80 -40 0 -40 0 0
-80z"/>
</g>
</svg>
