<?xml version="1.0" standalone="no"?>
<!DOCTYPE svg PUBLIC "-//W3C//DTD SVG 20010904//EN"
 "http://www.w3.org/TR/2001/REC-SVG-20010904/DTD/svg10.dtd">
<svg version="1.0" xmlns="http://www.w3.org/2000/svg"
 width="223.000000pt" height="224.000000pt" viewBox="0 0 223.000000 224.000000"
 preserveAspectRatio="xMidYMid meet">
<metadata>
Created by potrace 1.15, written by Peter Selinger 2001-2017
</metadata>
<g transform="translate(0.000000,224.000000) scale(0.100000,-0.100000)"
fill="#000000" stroke="none">
<path d="M1420 2130 c0 -5 -13 -10 -30 -10 -16 0 -30 -4 -30 -10 0 -5 -11 -10
-25 -10 -14 0 -25 -4 -25 -10 0 -5 -7 -10 -15 -10 -21 0 -85 -65 -85 -85 0
-19 -23 -45 -39 -45 -6 0 -11 -9 -11 -20 0 -11 5 -20 10 -20 18 0 80 -68 80
-87 0 -10 9 -25 20 -33 11 -8 20 -22 20 -32 0 -10 5 -18 10 -18 6 0 10 -9 10
-20 0 -11 7 -20 15 -20 10 0 15 -11 15 -35 0 -19 5 -35 10 -35 6 0 10 -25 10
-55 0 -30 5 -55 10 -55 6 0 10 -35 10 -85 0 -50 -4 -85 -10 -85 -5 0 -10 -22
-10 -50 0 -27 -4 -50 -10 -50 -5 0 -10 -20 -10 -45 0 -33 -4 -45 -15 -45 -8 0
-15 -9 -15 -20 0 -11 -4 -20 -10 -20 -5 0 -10 -9 -10 -20 0 -11 -4 -20 -10
-20 -5 0 -10 -11 -10 -25 0 -14 -4 -25 -10 -25 -5 0 -10 -9 -10 -20 0 -11 -4
-20 -10 -20 -5 0 -10 -8 -10 -18 0 -10 -9 -24 -20 -32 -11 -8 -20 -25 -20 -37
0 -14 -6 -23 -15 -23 -8 0 -15 -9 -15 -20 0 -16 7 -20 35 -20 19 0 35 -4 35
-10 0 -5 9 -10 20 -10 11 0 20 -4 20 -10 0 -5 9 -10 20 -10 11 0 20 -4 20 -10
0 -5 11 -10 25 -10 16 0 25 -6 25 -15 0 -8 8 -15 18 -15 10 0 24 -9 32 -20 8
-11 22 -20 32 -20 10 0 18 -4 18 -10 0 -5 7 -10 15 -10 8 0 15 -4 15 -10 0 -5
7 -10 15 -10 15 0 65 -42 65 -55 0 -8 47 -55 55 -55 12 0 35 -29 35 -44 0 -9
5 -16 10 -16 6 0 10 -9 10 -20 0 -19 7 -20 105 -20 63 0 105 4 105 10 0 6 25
10 55 10 30 0 55 5 55 10 0 6 14 10 30 10 17 0 30 5 30 10 0 6 15 10 33 10 21
0 38 7 47 20 8 11 22 20 32 20 11 0 18 7 18 20 0 11 5 20 10 20 6 0 10 7 10
15 0 8 5 15 10 15 6 0 10 32 10 75 0 43 -4 75 -10 75 -5 0 -10 8 -10 18 0 10
-9 24 -20 32 -11 8 -20 20 -20 28 0 18 -25 42 -44 42 -9 0 -16 7 -16 15 0 8
-6 15 -13 15 -7 0 -19 9 -27 20 -8 11 -22 20 -32 20 -10 0 -18 5 -18 10 0 6
-9 10 -20 10 -11 0 -20 5 -20 10 0 6 -11 10 -25 10 -14 0 -25 5 -25 10 0 6 -9
10 -20 10 -11 0 -20 5 -20 10 0 6 -9 10 -20 10 -11 0 -20 7 -20 15 0 10 -11
15 -35 15 -19 0 -35 5 -35 10 0 6 -9 10 -20 10 -11 0 -20 5 -20 10 0 6 -9 10
-20 10 -18 0 -20 7 -20 65 0 37 4 65 10 65 6 0 10 7 10 16 0 9 14 29 30 44 17
15 30 35 30 44 0 9 7 16 15 16 9 0 15 9 15 25 0 14 5 25 10 25 6 0 10 9 10 20
0 11 5 20 10 20 6 0 10 14 10 30 0 17 5 30 10 30 6 0 10 25 10 55 0 30 5 55
10 55 6 0 10 38 10 95 0 57 -4 95 -10 95 -5 0 -10 20 -10 45 0 25 -4 45 -10
45 -5 0 -10 9 -10 20 0 11 -4 20 -10 20 -5 0 -10 9 -10 20 0 11 -4 20 -10 20
-5 0 -10 7 -10 15 0 8 -5 15 -11 15 -6 0 -24 14 -39 30 -15 17 -34 30 -42 30
-7 0 -20 9 -28 20 -9 13 -26 20 -47 20 -18 0 -33 5 -33 10 0 6 -38 10 -95 10
-57 0 -95 -4 -95 -10z"/>
<path d="M740 1880 c0 -5 -25 -10 -55 -10 -30 0 -55 -4 -55 -10 0 -5 -9 -10
-20 -10 -11 0 -20 -7 -20 -15 0 -9 -9 -15 -23 -15 -12 0 -29 -9 -37 -20 -8
-11 -20 -20 -28 -20 -17 0 -42 -25 -42 -42 0 -8 -9 -20 -20 -28 -11 -8 -20
-25 -20 -37 0 -14 -6 -23 -15 -23 -10 0 -15 -10 -15 -30 0 -16 -4 -30 -10 -30
-6 0 -10 -60 -10 -160 0 -100 4 -160 10 -160 6 0 10 -16 10 -35 0 -24 5 -35
15 -35 10 0 15 -10 15 -30 0 -16 5 -30 10 -30 6 0 10 -9 10 -20 0 -11 5 -20
10 -20 6 0 10 -10 10 -23 0 -12 9 -29 20 -37 11 -8 20 -20 20 -28 0 -15 45
-62 60 -62 5 0 10 -11 10 -25 0 -14 5 -25 10 -25 6 0 10 -18 10 -40 0 -22 -4
-40 -10 -40 -5 0 -10 -9 -10 -20 0 -11 -7 -20 -15 -20 -9 0 -15 -9 -15 -21 0
-28 -23 -49 -54 -49 -14 0 -26 -4 -26 -10 0 -5 -9 -10 -20 -10 -11 0 -20 -4
-20 -10 0 -5 -11 -10 -25 -10 -14 0 -25 -4 -25 -10 0 -5 -9 -10 -20 -10 -11 0
-20 -4 -20 -10 0 -5 -9 -10 -20 -10 -11 0 -20 -7 -20 -15 0 -8 -9 -15 -20 -15
-11 0 -20 -4 -20 -10 0 -5 -9 -10 -21 -10 -12 0 -34 -13 -49 -30 -15 -16 -34
-30 -42 -30 -7 0 -20 -9 -28 -20 -8 -11 -18 -20 -23 -20 -16 0 -37 -28 -37
-49 0 -12 -4 -21 -10 -21 -5 0 -10 -9 -10 -20 0 -11 -4 -20 -10 -20 -6 0 -10
-32 -10 -75 0 -43 4 -75 10 -75 6 0 10 -8 10 -18 0 -10 9 -24 20 -32 11 -8 20
-20 20 -27 0 -7 7 -13 15 -13 8 0 15 -4 15 -10 0 -5 9 -10 20 -10 11 0 20 -4
20 -10 0 -5 14 -10 30 -10 17 0 30 -4 30 -10 0 -5 16 -10 35 -10 19 0 35 -4
35 -10 0 -5 23 -10 50 -10 28 0 50 -4 50 -10 0 -6 43 -10 110 -10 67 0 110 -4
110 -10 0 -6 70 -10 190 -10 120 0 190 4 190 10 0 6 43 10 110 10 67 0 110 4
110 10 0 6 23 10 50 10 28 0 50 5 50 10 0 6 16 10 35 10 19 0 35 5 35 10 0 6
14 10 30 10 17 0 30 5 30 10 0 6 9 10 20 10 11 0 20 5 20 10 0 6 7 10 15 10 8
0 15 6 15 13 0 7 9 19 20 27 11 8 20 22 20 32 0 10 5 18 10 18 6 0 10 32 10
75 0 43 -4 75 -10 75 -5 0 -10 9 -10 20 0 11 -4 20 -10 20 -5 0 -10 9 -10 21
0 21 -21 49 -37 49 -5 0 -15 9 -23 20 -8 11 -21 20 -30 20 -9 0 -22 9 -30 20
-8 11 -22 20 -32 20 -10 0 -18 5 -18 10 0 6 -7 10 -15 10 -8 0 -15 5 -15 10 0
6 -9 10 -20 10 -11 0 -20 7 -20 15 0 8 -9 15 -20 15 -11 0 -20 5 -20 10 0 6
-9 10 -20 10 -11 0 -20 5 -20 10 0 6 -11 10 -25 10 -14 0 -25 5 -25 10 0 6
-13 10 -30 10 -16 0 -30 5 -30 10 0 6 -8 10 -18 10 -10 0 -24 9 -32 20 -8 11
-20 20 -27 20 -7 0 -13 11 -13 25 0 14 -4 25 -10 25 -5 0 -10 23 -10 50 0 28
5 50 10 50 6 0 10 11 10 25 0 14 5 25 11 25 15 0 39 26 39 42 0 8 9 20 20 28
11 8 20 24 20 35 0 11 9 27 20 35 11 8 20 22 20 32 0 10 5 18 10 18 6 0 10 14
10 30 0 17 5 30 10 30 6 0 10 16 10 35 0 24 5 35 15 35 11 0 15 11 15 40 0 22
5 40 10 40 6 0 10 32 10 75 0 43 -4 75 -10 75 -5 0 -10 25 -10 55 0 42 -3 55
-15 55 -8 0 -15 9 -15 20 0 11 -4 20 -10 20 -5 0 -10 10 -10 23 0 12 -9 29
-20 37 -11 8 -20 20 -20 28 0 17 -25 42 -42 42 -8 0 -20 9 -28 20 -8 11 -25
20 -37 20 -14 0 -23 6 -23 15 0 8 -9 15 -20 15 -11 0 -20 5 -20 10 0 6 -25 10
-55 10 -30 0 -55 5 -55 10 0 6 -18 10 -40 10 -22 0 -40 -4 -40 -10z"/>
</g>
</svg>
