<?xml version="1.0" standalone="no"?>
<!DOCTYPE svg PUBLIC "-//W3C//DTD SVG 20010904//EN"
 "http://www.w3.org/TR/2001/REC-SVG-20010904/DTD/svg10.dtd">
<svg version="1.0" xmlns="http://www.w3.org/2000/svg"
 width="240.000000pt" height="240.000000pt" viewBox="0 0 240.000000 240.000000"
 preserveAspectRatio="xMidYMid meet">
<metadata>
Created by potrace 1.14, written by Peter Selinger 2001-2017
</metadata>
<g transform="translate(0.000000,240.000000) scale(0.100000,-0.100000)"
fill="#000000" stroke="none">
<path d="M340 1200 l0 -1100 860 0 860 0 0 788 c0 776 0 788 -20 802 -11 8
-20 20 -20 27 0 7 -5 13 -11 13 -14 0 -39 25 -39 39 0 6 -10 11 -23 11 -12 0
-29 9 -37 20 -8 11 -20 20 -27 20 -7 0 -13 5 -13 11 0 14 -25 39 -39 39 -6 0
-11 5 -11 10 0 14 -46 60 -60 60 -5 0 -10 5 -10 11 0 14 -25 39 -39 39 -6 0
-11 5 -11 10 0 14 -46 60 -60 60 -5 0 -10 5 -10 11 0 14 -25 39 -39 39 -6 0
-11 5 -11 10 0 14 -46 60 -60 60 -5 0 -10 5 -10 11 0 14 -25 39 -39 39 -6 0
-11 5 -11 10 0 6 -11 22 -25 35 l-24 25 -536 0 -535 0 0 -1100z m1080 1000 c0
-6 11 -22 25 -35 13 -14 29 -25 35 -25 5 0 10 -5 10 -11 0 -6 6 -17 14 -25 8
-8 19 -14 25 -14 6 0 11 -5 11 -10 0 -6 11 -22 25 -35 13 -14 29 -25 35 -25 5
0 10 -5 10 -11 0 -6 6 -17 14 -25 8 -8 19 -14 25 -14 6 0 11 -5 11 -10 0 -6
11 -22 25 -35 13 -14 29 -25 35 -25 5 0 10 -5 10 -11 0 -6 6 -17 14 -25 8 -8
19 -14 25 -14 6 0 11 -5 11 -10 0 -6 11 -22 25 -35 13 -14 29 -25 35 -25 5 0
10 -5 10 -11 0 -6 6 -17 14 -25 8 -8 19 -14 25 -14 6 0 11 -7 11 -15 0 -8 5
-15 10 -15 6 0 10 -9 10 -20 0 -15 7 -20 25 -20 16 0 25 -6 25 -15 0 -13 -39
-15 -290 -15 l-290 0 0 290 c0 251 2 290 15 290 8 0 15 -5 15 -10z m-214 -774
c8 -8 14 -31 14 -50 0 -25 4 -36 15 -36 10 0 15 -11 15 -35 0 -24 -5 -35 -15
-35 -12 0 -15 -13 -15 -60 0 -33 -4 -60 -10 -60 -5 0 -10 -9 -10 -21 0 -22 22
-49 39 -49 6 0 11 -9 11 -21 0 -22 22 -49 39 -49 6 0 11 -5 11 -10 0 -6 11
-22 25 -35 23 -24 29 -25 165 -25 118 0 140 -2 140 -15 0 -8 5 -15 11 -15 20
0 39 -29 39 -59 0 -17 -4 -31 -10 -31 -5 0 -10 -11 -10 -25 0 -22 -4 -25 -40
-25 -29 0 -40 -4 -40 -15 0 -10 -11 -15 -35 -15 -24 0 -35 5 -35 15 0 11 -12
15 -45 15 -25 0 -45 5 -45 10 0 6 -11 10 -25 10 -16 0 -25 6 -25 15 0 11 -12
15 -50 15 -38 0 -50 -4 -50 -15 0 -11 -12 -15 -45 -15 -25 0 -45 -4 -45 -10 0
-5 -18 -10 -40 -10 -29 0 -40 -4 -40 -15 0 -8 -9 -15 -20 -15 -11 0 -20 -4
-20 -10 0 -5 -5 -10 -11 -10 -14 0 -39 -25 -39 -39 0 -6 -7 -11 -15 -11 -8 0
-15 -9 -15 -20 0 -22 -41 -70 -60 -70 -5 0 -10 -5 -10 -11 0 -20 -29 -39 -59
-39 -21 0 -31 -5 -31 -15 0 -8 -7 -15 -15 -15 -8 0 -15 7 -15 15 0 9 -9 15
-21 15 -32 0 -49 25 -49 70 0 40 17 70 39 70 6 0 11 7 11 15 0 9 9 15 23 15
12 0 29 9 37 20 8 11 25 20 37 20 14 0 23 6 23 15 0 9 9 15 25 15 14 0 25 5
25 10 0 6 9 10 20 10 15 0 20 7 20 25 0 16 6 25 15 25 9 0 15 9 15 25 0 14 5
25 10 25 6 0 10 11 10 25 0 16 6 25 15 25 10 0 15 11 15 35 0 19 5 35 10 35 6
0 10 11 10 25 0 14 5 25 10 25 6 0 10 20 10 45 0 25 -4 45 -10 45 -5 0 -10 11
-10 25 0 14 -4 25 -10 25 -5 0 -10 16 -10 35 0 24 -5 35 -15 35 -11 0 -15 12
-15 50 0 38 4 50 15 50 8 0 15 9 15 20 0 12 6 27 13 35 16 19 114 20 133 1z"/>
</g>
</svg>
