<?xml version="1.0" standalone="no"?>
<!DOCTYPE svg PUBLIC "-//W3C//DTD SVG 20010904//EN"
 "http://www.w3.org/TR/2001/REC-SVG-20010904/DTD/svg10.dtd">
<svg version="1.0" xmlns="http://www.w3.org/2000/svg"
 width="242.000000pt" height="243.000000pt" viewBox="0 0 242.000000 243.000000"
 preserveAspectRatio="xMidYMid meet">
<metadata>
Created by potrace 1.14, written by Peter Selinger 2001-2017
</metadata>
<g transform="translate(0.000000,243.000000) scale(0.100000,-0.100000)"
 stroke="none">
<path d="M870 2165 c0 -9 -9 -15 -21 -15 -26 0 -49 -23 -49 -49 0 -12 -6 -21
-15 -21 -12 0 -15 -17 -15 -95 l0 -95 -335 0 c-291 0 -335 -2 -335 -15 0 -9
-9 -15 -25 -15 -14 0 -25 -4 -25 -10 0 -5 -7 -10 -15 -10 -9 0 -15 -9 -15 -25
0 -14 -4 -25 -10 -25 -6 0 -10 -55 -10 -145 l0 -145 145 0 c140 0 145 1 145
21 0 22 22 49 39 49 6 0 11 7 11 15 0 13 23 15 145 15 96 0 145 -4 145 -11 0
-14 25 -39 39 -39 6 0 11 -11 11 -25 l0 -25 530 0 c529 0 530 0 530 21 0 22
22 49 39 49 6 0 11 7 11 15 0 13 23 15 145 15 96 0 145 -4 145 -11 0 -14 25
-39 39 -39 6 0 11 -11 11 -25 l0 -25 145 0 145 0 0 145 c0 122 -2 145 -15 145
-9 0 -15 9 -15 21 0 26 -23 49 -49 49 -12 0 -21 6 -21 15 0 13 -44 15 -340 15
l-340 0 0 95 c0 57 -4 95 -10 95 -5 0 -10 11 -10 25 0 16 -6 25 -15 25 -8 0
-15 5 -15 10 0 6 -9 10 -20 10 -11 0 -20 7 -20 15 0 13 -44 15 -340 15 -296 0
-340 -2 -340 -15z m650 -95 c0 -5 7 -10 15 -10 12 0 15 -16 15 -85 l0 -85
-340 0 -340 0 0 80 c0 51 5 86 13 95 10 12 67 14 325 15 201 0 312 -4 312 -10z"/>
<path d="M390 1455 l0 -45 95 0 95 0 0 45 0 45 -95 0 -95 0 0 -45z"/>
<path d="M1840 1455 l0 -45 95 0 95 0 0 45 0 45 -95 0 -95 0 0 -45z"/>
<path d="M0 875 c0 -350 3 -535 10 -535 6 0 10 -11 10 -25 0 -16 6 -25 15 -25
8 0 15 -4 15 -10 0 -5 11 -10 25 -10 14 0 25 -4 25 -10 0 -7 377 -10 1110 -10
733 0 1110 3 1110 10 0 6 9 10 21 10 26 0 49 23 49 49 0 12 6 21 15 21 13 0
15 66 15 535 l0 535 -145 0 -145 0 0 -25 c0 -16 -6 -25 -15 -25 -8 0 -15 -5
-15 -11 0 -32 -28 -39 -169 -39 -87 0 -141 4 -141 10 0 6 -7 10 -15 10 -8 0
-15 7 -15 15 0 8 -4 15 -10 15 -5 0 -10 11 -10 25 l0 25 -530 0 -530 0 0 -25
c0 -16 -6 -25 -15 -25 -8 0 -15 -5 -15 -11 0 -32 -28 -39 -169 -39 -87 0 -141
4 -141 10 0 6 -7 10 -15 10 -8 0 -15 7 -15 15 0 8 -4 15 -10 15 -5 0 -10 11
-10 25 l0 25 -145 0 -145 0 0 -535z m1300 240 l0 -95 100 0 100 0 0 -95 0 -95
-100 0 -100 0 0 -100 0 -100 -95 0 -95 0 0 100 0 100 -95 0 -95 0 0 95 0 95
95 0 95 0 0 95 0 95 95 0 95 0 0 -95z"/>
</g>
</svg>
