<?xml version="1.0" standalone="no"?>
<!DOCTYPE svg PUBLIC "-//W3C//DTD SVG 20010904//EN"
 "http://www.w3.org/TR/2001/REC-SVG-20010904/DTD/svg10.dtd">
<svg version="1.0" xmlns="http://www.w3.org/2000/svg"
 width="204.000000pt" height="204.000000pt" viewBox="0 0 204.000000 204.000000"
 preserveAspectRatio="xMidYMid meet">
<metadata>
Created by potrace 1.15, written by Peter Selinger 2001-2017
</metadata>
<g transform="translate(0.000000,204.000000) scale(0.100000,-0.100000)" stroke="none">
<path d="M13 1865 c-10 -11 -13 -195 -13 -845 0 -707 2 -834 14 -846 22 -21
1990 -21 2012 0 21 22 21 1670 0 1692 -22 21 -1995 20 -2013 -1z m1683 -329
c20 -21 17 -59 -6 -76 -11 -8 -20 -21 -20 -30 0 -9 -9 -22 -20 -30 -11 -8 -20
-20 -20 -28 0 -21 -47 -62 -72 -62 -13 0 -30 9 -38 20 -8 11 -20 20 -28 20 -7
0 -28 16 -48 35 l-35 35 27 27 c18 18 29 23 32 15 2 -7 11 -12 21 -12 9 0 23
-9 31 -20 8 -11 20 -20 28 -20 17 0 42 25 42 42 0 8 9 20 20 28 11 8 20 22 20
32 0 11 7 18 20 18 11 0 20 5 20 10 0 14 9 12 26 -4z m-516 -106 l0 -40 -405
0 -405 0 0 40 0 40 405 0 405 0 0 -40z m516 -304 c20 -21 17 -59 -6 -76 -11
-8 -20 -21 -20 -30 0 -9 -9 -22 -20 -30 -11 -8 -20 -20 -20 -28 0 -21 -47 -62
-72 -62 -13 0 -30 9 -38 20 -8 11 -20 20 -28 20 -7 0 -28 16 -48 35 l-35 35
27 27 c18 18 29 23 32 15 2 -7 11 -12 21 -12 9 0 23 -9 31 -20 8 -11 20 -20
28 -20 17 0 42 25 42 42 0 8 9 20 20 28 11 8 20 22 20 32 0 11 7 18 20 18 11
0 20 5 20 10 0 14 9 12 26 -4z m-516 -106 l0 -40 -405 0 -405 0 0 40 0 40 405
0 405 0 0 -40z m516 -304 c20 -21 17 -59 -6 -76 -11 -8 -20 -21 -20 -30 0 -9
-9 -22 -20 -30 -11 -8 -20 -20 -20 -28 0 -21 -47 -62 -72 -62 -13 0 -30 9 -38
20 -8 11 -20 20 -28 20 -7 0 -28 16 -48 35 l-35 35 27 27 c18 18 29 23 32 15
2 -7 11 -12 21 -12 9 0 23 -9 31 -20 8 -11 20 -20 28 -20 17 0 42 25 42 42 0
8 9 20 20 28 11 8 20 22 20 32 0 11 7 18 20 18 11 0 20 5 20 10 0 14 9 12 26
-4z m-516 -106 l0 -40 -405 0 -405 0 0 40 0 40 405 0 405 0 0 -40z"/>
</g>
</svg>
