<?xml version="1.0" standalone="no"?>
<!DOCTYPE svg PUBLIC "-//W3C//DTD SVG 20010904//EN"
 "http://www.w3.org/TR/2001/REC-SVG-20010904/DTD/svg10.dtd">
<svg version="1.0" xmlns="http://www.w3.org/2000/svg"
 width="240.000000pt" height="240.000000pt" viewBox="0 0 240.000000 240.000000"
 preserveAspectRatio="xMidYMid meet">
<metadata>
Created by potrace 1.15, written by Peter Selinger 2001-2017
</metadata>
<g transform="translate(0.000000,240.000000) scale(0.100000,-0.100000)"
fill="#000000" stroke="none">
<path d="M2083 2275 c-18 -19 -23 -36 -23 -80 0 -42 -3 -55 -15 -55 -8 0 -15
-7 -15 -15 0 -8 -4 -15 -10 -15 -5 0 -10 -9 -10 -20 0 -11 -4 -20 -10 -20 -5
0 -10 -7 -10 -15 0 -8 -5 -15 -11 -15 -17 0 -39 -27 -39 -49 0 -12 -5 -21 -11
-21 -17 0 -39 -27 -39 -49 0 -12 -4 -21 -10 -21 -5 0 -10 -7 -10 -15 0 -8 -5
-15 -11 -15 -17 0 -39 -27 -39 -49 0 -12 -5 -21 -11 -21 -16 0 -39 -26 -39
-45 0 -19 -23 -45 -39 -45 -6 0 -11 -7 -11 -15 0 -8 -4 -15 -10 -15 -5 0 -10
-11 -10 -25 0 -24 -3 -25 -60 -25 -47 0 -60 3 -60 15 0 9 -9 15 -25 15 -14 0
-25 5 -25 10 0 6 -11 10 -25 10 -16 0 -25 6 -25 15 0 8 -9 15 -20 15 -11 0
-20 5 -20 10 0 6 -11 10 -25 10 -14 0 -25 5 -25 10 0 6 -11 10 -25 10 -16 0
-25 6 -25 15 0 9 -9 15 -25 15 -19 0 -25 5 -25 21 0 22 -22 49 -39 49 -6 0
-11 5 -11 10 0 6 -20 10 -45 10 -25 0 -45 -4 -45 -10 0 -5 -5 -10 -11 -10 -20
0 -39 -29 -39 -60 0 -31 -19 -60 -39 -60 -6 0 -11 -4 -11 -10 0 -5 -11 -10
-25 -10 -14 0 -25 -6 -25 -13 0 -7 -9 -19 -20 -27 -11 -8 -20 -20 -20 -27 0
-7 -7 -13 -15 -13 -8 0 -15 -4 -15 -10 0 -5 -9 -10 -20 -10 -11 0 -20 -4 -20
-10 0 -5 -7 -10 -15 -10 -8 0 -15 -5 -15 -11 0 -14 -25 -39 -39 -39 -6 0 -11
-7 -11 -15 0 -8 -9 -15 -20 -15 -11 0 -20 -4 -20 -10 0 -5 -21 -10 -46 -10
-44 0 -74 -16 -74 -39 0 -6 -7 -11 -15 -11 -8 0 -15 -9 -15 -20 0 -16 -7 -20
-35 -20 -24 0 -35 -5 -35 -15 0 -9 -9 -15 -25 -15 -14 0 -25 -4 -25 -10 0 -5
-16 -10 -35 -10 -24 0 -35 -5 -35 -15 0 -9 -9 -15 -25 -15 -14 0 -25 -4 -25
-10 0 -5 -15 -10 -34 -10 -19 0 -37 -6 -40 -12 -5 -10 -7 -10 -12 0 -8 17 -92
16 -110 -2 -8 -8 -14 -19 -14 -25 0 -6 -7 -11 -15 -11 -11 0 -15 -12 -15 -45
0 -33 4 -45 15 -45 8 0 15 -5 15 -11 0 -22 30 -39 70 -39 40 0 70 17 70 39 0
6 5 11 10 11 6 0 10 9 10 20 0 17 7 20 40 20 29 0 40 4 40 15 0 8 9 15 20 15
11 0 20 5 20 10 0 6 18 10 40 10 29 0 40 4 40 15 0 8 9 15 20 15 11 0 20 5 20
10 0 6 18 10 39 10 22 0 42 6 45 13 5 10 7 10 12 0 8 -18 92 -17 110 1 8 8 14
19 14 25 0 6 5 11 10 11 6 0 10 16 10 35 0 19 5 35 11 35 14 0 39 25 39 39 0
6 10 11 23 11 12 0 29 9 37 20 8 11 20 20 27 20 7 0 13 5 13 11 0 17 27 39 49
39 12 0 21 5 21 11 0 11 25 39 35 39 10 0 35 28 35 39 0 6 11 11 25 11 14 0
25 5 25 10 0 6 30 10 70 10 40 0 70 -4 70 -10 0 -5 11 -10 25 -10 16 0 25 -6
25 -15 0 -9 9 -15 25 -15 14 0 25 -4 25 -10 0 -5 14 -10 31 -10 30 0 59 -19
59 -39 0 -6 11 -11 25 -11 14 0 25 -4 25 -10 0 -5 11 -10 25 -10 19 0 25 -5
25 -21 0 -22 22 -49 39 -49 6 0 11 -7 11 -15 0 -11 12 -15 45 -15 33 0 45 4
45 15 0 8 5 15 11 15 24 0 39 30 39 80 0 50 15 80 39 80 6 0 11 11 11 25 0 14
5 25 10 25 6 0 10 7 10 15 0 8 5 15 11 15 16 0 39 26 39 45 0 19 23 45 39 45
6 0 11 9 11 21 0 22 22 49 39 49 6 0 11 7 11 15 0 8 5 15 10 15 6 0 10 9 10
21 0 22 22 49 39 49 6 0 11 10 11 23 0 12 9 29 20 37 11 8 20 20 20 27 0 7 7
13 15 13 8 0 15 9 15 20 0 16 7 20 35 20 19 0 35 5 35 11 0 14 25 39 39 39 6
0 11 21 11 50 0 34 -4 50 -13 50 -7 0 -19 9 -27 20 -22 30 -97 27 -127 -5z"/>
<path d="M1960 845 l0 -835 190 0 190 0 0 835 0 835 -190 0 -190 0 0 -835z"/>
<path d="M1000 630 l0 -620 195 0 195 0 0 620 0 620 -195 0 -195 0 0 -620z"/>
<path d="M1480 510 l0 -500 195 0 195 0 0 500 0 500 -195 0 -195 0 0 -500z"/>
<path d="M530 440 l0 -430 190 0 190 0 0 430 0 430 -190 0 -190 0 0 -430z"/>
<path d="M50 345 l0 -335 190 0 190 0 0 335 0 335 -190 0 -190 0 0 -335z"/>
</g>
</svg>
