<?xml version="1.0" standalone="no"?>
<!DOCTYPE svg PUBLIC "-//W3C//DTD SVG 20010904//EN"
 "http://www.w3.org/TR/2001/REC-SVG-20010904/DTD/svg10.dtd">
<svg version="1.0" xmlns="http://www.w3.org/2000/svg"
 width="218.000000pt" height="218.000000pt" viewBox="0 0 218.000000 218.000000"
 preserveAspectRatio="xMidYMid meet">
<metadata>
Created by potrace 1.14, written by Peter Selinger 2001-2017
</metadata>
<g transform="translate(0.000000,218.000000) scale(0.100000,-0.100000)"
fill="#000000" stroke="none">
<path d="M770 1955 c0 -11 -12 -15 -45 -15 -25 0 -45 -4 -45 -10 0 -5 -16 -10
-35 -10 -19 0 -35 -4 -35 -10 0 -5 -9 -10 -20 -10 -11 0 -20 -4 -20 -10 0 -5
-11 -10 -25 -10 -14 0 -25 -5 -25 -11 0 -16 -26 -39 -45 -39 -15 0 -65 -42
-65 -55 0 -8 -27 -35 -35 -35 -13 0 -35 -29 -35 -47 0 -10 -9 -25 -20 -33 -11
-8 -20 -22 -20 -32 0 -10 -7 -18 -15 -18 -9 0 -15 -9 -15 -25 0 -14 -4 -25
-10 -25 -5 0 -10 -16 -10 -35 0 -19 -4 -35 -10 -35 -5 0 -10 -20 -10 -45 0
-25 -4 -45 -10 -45 -6 0 -10 -43 -10 -110 0 -67 4 -110 10 -110 6 0 10 -20 10
-45 0 -25 5 -45 10 -45 6 0 10 -16 10 -35 0 -19 5 -35 10 -35 6 0 10 -11 10
-25 0 -16 6 -25 15 -25 8 0 15 -8 15 -18 0 -10 9 -24 20 -32 11 -8 20 -23 20
-33 0 -18 22 -47 35 -47 8 0 35 -27 35 -35 0 -15 51 -55 70 -55 11 0 20 -5 20
-11 0 -17 27 -39 49 -39 12 0 21 -4 21 -10 0 -5 9 -10 20 -10 11 0 20 -4 20
-10 0 -5 16 -10 35 -10 24 0 35 -5 35 -15 0 -11 12 -15 45 -15 25 0 45 -4 45
-10 0 -6 45 -10 115 -10 70 0 115 4 115 10 0 6 20 10 45 10 33 0 45 4 45 15 0
10 10 15 30 15 17 0 30 5 30 10 0 6 11 10 25 10 14 0 25 5 25 10 0 6 9 10 20
10 11 0 20 5 20 10 0 6 7 10 15 10 8 0 15 7 15 15 0 10 10 15 30 15 20 0 30
-5 30 -15 0 -8 5 -15 10 -15 14 0 80 -66 80 -80 0 -5 5 -10 11 -10 6 0 24 -13
39 -30 15 -16 33 -30 39 -30 6 0 11 -5 11 -10 0 -14 66 -80 80 -80 5 0 10 -5
10 -10 0 -14 66 -80 80 -80 5 0 10 -5 10 -10 0 -14 66 -80 80 -80 5 0 10 -5
10 -10 0 -18 53 -66 58 -52 2 7 8 12 14 12 11 0 38 25 38 36 0 3 10 15 22 25
l21 19 -21 19 c-12 10 -22 22 -22 25 0 9 -26 36 -35 36 -8 0 -55 47 -55 55 0
8 -27 35 -35 35 -8 0 -55 47 -55 55 0 8 -27 35 -35 35 -8 0 -55 47 -55 55 0 8
-27 35 -35 35 -8 0 -55 47 -55 55 0 8 -27 35 -35 35 -8 0 -35 27 -35 35 0 10
-28 35 -39 35 -6 0 -11 16 -11 35 0 19 5 35 11 35 16 0 39 26 39 44 0 9 5 16
10 16 6 0 10 11 10 25 0 16 6 25 15 25 10 0 15 11 15 35 0 19 5 35 10 35 6 0
10 20 10 45 0 25 5 45 10 45 6 0 10 43 10 110 0 67 -4 110 -10 110 -5 0 -10
20 -10 45 0 25 -4 45 -10 45 -5 0 -10 16 -10 35 0 24 -5 35 -15 35 -9 0 -15 9
-15 25 0 14 -4 25 -10 25 -5 0 -10 7 -10 16 0 18 -23 44 -39 44 -6 0 -11 9
-11 21 0 12 -13 34 -30 49 -16 15 -30 33 -30 39 0 6 -6 11 -13 11 -7 0 -19 9
-27 20 -8 11 -22 20 -32 20 -10 0 -18 5 -18 10 0 6 -7 10 -15 10 -8 0 -15 7
-15 15 0 8 -9 15 -20 15 -11 0 -20 5 -20 10 0 6 -11 10 -25 10 -14 0 -25 5
-25 10 0 6 -13 10 -30 10 -16 0 -30 5 -30 10 0 6 -20 10 -45 10 -33 0 -45 4
-45 15 0 12 -19 15 -115 15 -96 0 -115 -3 -115 -15z m230 -135 c0 -5 14 -10
30 -10 17 0 30 -4 30 -10 0 -5 16 -10 35 -10 19 0 35 -5 35 -11 0 -16 26 -39
45 -39 18 0 65 -43 65 -60 0 -5 5 -10 10 -10 19 0 80 -69 80 -90 0 -11 5 -20
11 -20 20 0 39 -29 39 -59 0 -17 5 -31 10 -31 6 0 10 -16 10 -35 0 -19 5 -35
10 -35 6 0 10 -43 10 -110 0 -67 -4 -110 -10 -110 -5 0 -10 -16 -10 -35 0 -19
-4 -35 -10 -35 -5 0 -10 -14 -10 -31 0 -30 -19 -59 -39 -59 -6 0 -11 -9 -11
-20 0 -21 -61 -90 -80 -90 -5 0 -10 -5 -10 -10 0 -17 -47 -60 -65 -60 -19 0
-45 -23 -45 -39 0 -6 -16 -11 -35 -11 -19 0 -35 -4 -35 -10 0 -5 -13 -10 -30
-10 -16 0 -30 -4 -30 -10 0 -6 -45 -10 -115 -10 -70 0 -115 4 -115 10 0 6 -16
10 -35 10 -19 0 -35 5 -35 10 0 6 -16 10 -35 10 -19 0 -35 5 -35 11 0 16 -26
39 -44 39 -9 0 -16 5 -16 10 0 6 -5 10 -11 10 -11 0 -39 25 -39 35 0 8 -47 55
-55 55 -13 0 -35 29 -35 47 0 10 -9 25 -20 33 -13 9 -20 26 -20 47 0 23 -5 33
-15 33 -10 0 -15 11 -15 35 0 19 -4 35 -10 35 -6 0 -10 43 -10 110 0 67 4 110
10 110 6 0 10 16 10 35 0 24 5 35 15 35 10 0 15 10 15 33 0 21 7 38 20 47 11
8 20 23 20 33 0 18 22 47 35 47 8 0 55 47 55 55 0 10 28 35 39 35 6 0 11 5 11
10 0 6 7 10 16 10 18 0 44 23 44 39 0 6 16 11 35 11 19 0 35 5 35 10 0 6 16
10 35 10 19 0 35 5 35 10 0 6 45 10 115 10 70 0 115 -4 115 -10z"/>
</g>
</svg>
