<?xml version="1.0" standalone="no"?>
<!DOCTYPE svg PUBLIC "-//W3C//DTD SVG 20010904//EN"
 "http://www.w3.org/TR/2001/REC-SVG-20010904/DTD/svg10.dtd">
<svg version="1.0" xmlns="http://www.w3.org/2000/svg"
 width="231.000000pt" height="232.000000pt" viewBox="0 0 231.000000 232.000000"
 preserveAspectRatio="xMidYMid meet">
<metadata>
Created by potrace 1.14, written by Peter Selinger 2001-2017
</metadata>
<g transform="translate(0.000000,232.000000) scale(0.100000,-0.100000)"
fill="#000000" stroke="none">
<path d="M970 2265 c0 -33 -4 -45 -15 -45 -12 0 -15 -14 -15 -70 0 -40 -4 -70
-10 -70 -6 0 -10 -27 -10 -60 l0 -60 -35 0 c-19 0 -35 -4 -35 -10 0 -5 -9 -10
-20 -10 -11 0 -20 -4 -20 -10 0 -5 -11 -10 -24 -10 -13 0 -27 -6 -30 -12 -5
-10 -7 -10 -12 0 -3 6 -12 12 -20 12 -8 0 -14 5 -14 10 0 6 -7 10 -16 10 -18
0 -44 23 -44 39 0 6 -10 11 -23 11 -12 0 -29 9 -37 20 -8 11 -20 20 -27 20 -7
0 -13 7 -13 15 0 8 -9 15 -20 15 -11 0 -20 5 -20 10 0 6 -6 10 -14 10 -8 0
-16 6 -19 13 -3 8 -11 5 -24 -10 -11 -13 -25 -23 -32 -23 -6 0 -11 -5 -11 -11
0 -6 -13 -24 -30 -39 -16 -15 -30 -33 -30 -39 0 -6 -5 -11 -11 -11 -6 0 -24
-13 -39 -30 -15 -16 -33 -30 -39 -30 -6 0 -11 -7 -11 -15 0 -8 -4 -15 -10 -15
-5 0 -10 -14 -10 -31 0 -30 19 -59 39 -59 6 0 11 -9 11 -20 0 -22 41 -70 60
-70 5 0 10 -10 10 -23 0 -12 9 -29 20 -37 11 -8 20 -24 20 -36 0 -12 6 -25 13
-28 10 -5 10 -7 0 -12 -7 -3 -13 -17 -13 -30 0 -13 -4 -24 -10 -24 -5 0 -10
-9 -10 -20 0 -11 -4 -20 -10 -20 -5 0 -10 -16 -10 -35 l0 -35 -60 0 c-33 0
-60 -4 -60 -10 0 -6 -30 -10 -70 -10 -56 0 -70 -3 -70 -15 0 -11 -12 -15 -45
-15 l-45 0 0 -185 0 -185 60 0 c33 0 60 -4 60 -10 0 -6 28 -10 65 -10 37 0 65
-4 65 -10 0 -5 23 -10 50 -10 l50 0 0 -35 c0 -19 5 -35 10 -35 6 0 10 -11 10
-25 0 -14 5 -25 10 -25 6 0 10 -9 10 -20 0 -11 5 -20 10 -20 6 0 10 -7 10 -15
0 -8 -4 -15 -10 -15 -5 0 -10 -9 -10 -20 0 -11 -4 -20 -10 -20 -5 0 -10 -5
-10 -11 0 -14 -25 -39 -39 -39 -6 0 -11 -9 -11 -20 0 -11 -4 -20 -10 -20 -5 0
-10 -7 -10 -15 0 -8 -4 -15 -10 -15 -5 0 -10 -9 -10 -20 0 -11 -7 -20 -15 -20
-8 0 -15 -5 -15 -11 0 -7 -10 -21 -22 -32 -16 -13 -19 -21 -10 -24 6 -3 12 -9
12 -15 0 -11 25 -38 35 -38 8 0 35 -27 35 -35 0 -8 27 -35 35 -35 8 0 55 -47
55 -55 0 -10 28 -35 39 -35 6 0 11 -4 11 -10 0 -19 65 -11 80 10 8 11 25 20
37 20 13 0 23 5 23 10 0 17 47 60 65 60 19 0 45 23 45 39 0 6 11 11 24 11 13
0 27 6 30 13 5 9 7 9 12 0 3 -7 17 -13 30 -13 15 0 24 -6 24 -15 0 -8 9 -15
20 -15 11 0 20 -4 20 -10 0 -5 16 -10 35 -10 l35 0 0 -55 c0 -30 5 -55 10 -55
6 0 10 -30 10 -70 0 -56 3 -70 15 -70 11 0 15 -12 15 -45 l0 -45 185 0 185 0
0 55 c0 30 5 55 10 55 6 0 10 30 10 70 0 40 4 70 10 70 6 0 10 20 10 45 0 45
0 45 35 45 19 0 35 5 35 10 0 6 11 10 25 10 16 0 25 6 25 15 0 8 9 15 20 15
11 0 20 5 20 10 0 6 7 10 15 10 8 0 15 -4 15 -10 0 -5 9 -10 20 -10 11 0 20
-7 20 -15 0 -8 7 -15 15 -15 8 0 15 -4 15 -10 0 -5 8 -10 18 -10 10 0 24 -9
32 -20 8 -11 20 -20 27 -20 7 0 13 -7 13 -15 0 -8 9 -15 20 -15 11 0 20 -4 20
-10 0 -5 7 -10 15 -10 8 0 15 -4 15 -10 0 -5 14 -10 30 -10 30 0 80 37 80 60
0 5 5 10 10 10 14 0 80 66 80 80 0 5 5 10 10 10 14 0 60 46 60 60 0 5 7 10 15
10 8 0 15 5 15 10 0 6 -5 10 -11 10 -14 0 -39 25 -39 39 0 6 -4 11 -10 11 -5
0 -10 9 -10 20 0 11 -7 20 -15 20 -8 0 -15 7 -15 15 0 8 -4 15 -10 15 -5 0
-10 8 -10 18 0 10 -9 24 -20 32 -11 8 -20 20 -20 27 0 7 -7 13 -15 13 -8 0
-15 9 -15 20 0 11 -4 20 -10 20 -5 0 -10 7 -10 15 0 8 5 15 10 15 6 0 10 9 10
20 0 11 7 20 15 20 9 0 15 9 15 25 0 14 5 25 10 25 6 0 10 16 10 35 0 35 0 35
45 35 25 0 45 5 45 10 0 6 30 10 70 10 40 0 70 4 70 10 0 6 25 10 55 10 l55 0
0 185 0 185 -45 0 c-33 0 -45 4 -45 15 0 12 -14 15 -70 15 -40 0 -70 4 -70 10
0 6 -25 10 -55 10 l-55 0 0 35 c0 19 -4 35 -10 35 -5 0 -10 9 -10 20 0 11 -7
20 -15 20 -9 0 -15 9 -15 24 0 13 -6 27 -12 30 -10 5 -10 7 0 12 6 3 12 17 12
30 0 13 5 24 11 24 16 0 39 26 39 45 0 18 43 65 60 65 5 0 10 10 10 23 0 12 9
29 20 37 21 15 29 80 10 80 -5 0 -10 5 -10 11 0 11 -25 39 -35 39 -8 0 -55 47
-55 55 0 8 -27 35 -35 35 -8 0 -35 27 -35 35 0 10 -27 35 -38 35 -6 0 -12 6
-15 13 -3 8 -11 5 -24 -10 -11 -13 -25 -23 -32 -23 -6 0 -11 -7 -11 -15 0 -8
-9 -15 -20 -15 -11 0 -20 -4 -20 -10 0 -5 -7 -10 -15 -10 -8 0 -15 -4 -15 -10
0 -5 -9 -10 -20 -10 -11 0 -20 -5 -20 -11 0 -6 -6 -17 -14 -25 -8 -8 -19 -14
-25 -14 -6 0 -11 -4 -11 -10 0 -5 -9 -10 -20 -10 -11 0 -20 -4 -20 -10 0 -5
-7 -10 -15 -10 -8 0 -15 5 -15 10 0 6 -9 10 -20 10 -11 0 -20 5 -20 10 0 6
-11 10 -25 10 -14 0 -25 5 -25 10 0 6 -16 10 -35 10 l-35 0 0 50 c0 28 -4 50
-10 50 -6 0 -10 28 -10 65 0 37 -4 65 -10 65 -6 0 -10 27 -10 60 l0 60 -185 0
-185 0 0 -45z m270 -795 c0 -5 11 -10 25 -10 16 0 25 -6 25 -15 0 -9 9 -15 21
-15 12 0 34 -13 49 -30 15 -16 33 -30 39 -30 6 0 11 -7 11 -15 0 -8 5 -15 10
-15 6 0 10 -9 10 -20 0 -11 5 -20 10 -20 6 0 10 -16 10 -35 0 -19 5 -35 10
-35 6 0 10 -30 10 -70 0 -40 -4 -70 -10 -70 -5 0 -10 -16 -10 -35 0 -19 -4
-35 -10 -35 -5 0 -10 -9 -10 -21 0 -19 -21 -49 -35 -49 -8 0 -35 -27 -35 -35
0 -14 -30 -35 -49 -35 -12 0 -21 -4 -21 -10 0 -5 -16 -10 -35 -10 -19 0 -35
-4 -35 -10 0 -6 -30 -10 -70 -10 -40 0 -70 4 -70 10 0 6 -16 10 -35 10 -19 0
-35 5 -35 10 0 6 -9 10 -20 10 -11 0 -20 5 -20 10 0 6 -7 10 -15 10 -8 0 -15
5 -15 11 0 6 -13 24 -30 39 -16 15 -30 37 -30 49 0 12 -6 21 -15 21 -9 0 -15
9 -15 25 0 14 -4 25 -10 25 -6 0 -10 37 -10 90 0 53 4 90 10 90 6 0 10 11 10
25 0 16 6 25 15 25 8 0 15 9 15 20 0 11 5 20 10 20 6 0 10 5 10 10 0 14 46 60
60 60 5 0 10 5 10 10 0 6 9 10 20 10 11 0 20 7 20 15 0 9 9 15 25 15 14 0 25
5 25 10 0 6 37 10 90 10 53 0 90 -4 90 -10z"/>
</g>
</svg>
