<?xml version="1.0" standalone="no"?>
<!DOCTYPE svg PUBLIC "-//W3C//DTD SVG 20010904//EN"
 "http://www.w3.org/TR/2001/REC-SVG-20010904/DTD/svg10.dtd">
<svg version="1.0" xmlns="http://www.w3.org/2000/svg"
 width="194.000000pt" height="194.000000pt" viewBox="0 0 194.000000 194.000000"
 preserveAspectRatio="xMidYMid meet">
<metadata>
Created by potrace 1.15, written by Peter Selinger 2001-2017
</metadata>
<g transform="translate(0.000000,194.000000) scale(0.100000,-0.100000)"
fill="#000000" stroke="none">
<path d="M1120 1930 c0 -5 -7 -10 -16 -10 -18 0 -44 -23 -44 -39 0 -6 -4 -11
-10 -11 -6 0 -10 -95 -10 -264 l0 -263 51 -7 c44 -6 57 -14 105 -61 30 -30 54
-64 54 -75 0 -11 5 -20 10 -20 6 0 10 -28 10 -65 l0 -65 155 0 c97 0 155 -4
155 -10 0 -5 9 -10 20 -10 11 0 20 -4 20 -10 0 -5 7 -10 16 -10 22 0 41 -21
49 -58 3 -18 11 -32 16 -32 11 0 12 -857 1 -862 -5 -2 -12 -15 -16 -30 l-6
-28 90 0 c53 0 90 4 90 10 0 6 7 10 16 10 20 0 44 24 44 44 0 9 5 16 10 16 7
0 10 305 10 895 0 590 -3 895 -10 895 -5 0 -10 5 -10 11 0 16 -26 39 -44 39
-9 0 -16 5 -16 10 0 6 -130 10 -370 10 -240 0 -370 -4 -370 -10z m430 -300 c0
-5 7 -10 15 -10 8 0 15 -4 15 -9 0 -5 9 -13 20 -16 11 -3 20 -15 20 -26 0 -10
5 -19 10 -19 6 0 10 -25 10 -55 0 -30 -4 -55 -10 -55 -5 0 -10 -7 -10 -15 0
-18 -43 -65 -60 -65 -5 0 -10 -4 -10 -10 0 -6 -27 -10 -60 -10 -33 0 -60 4
-60 10 0 6 -5 10 -10 10 -17 0 -60 47 -60 65 0 8 -4 15 -10 15 -5 0 -10 25
-10 55 0 30 5 55 10 55 6 0 10 9 10 19 0 11 9 23 20 26 11 3 20 11 20 16 0 5
7 9 15 9 8 0 15 5 15 10 0 6 27 10 60 10 33 0 60 -4 60 -10z"/>
<path d="M540 1260 c0 -5 -7 -10 -16 -10 -19 0 -54 -37 -54 -57 0 -7 -4 -13
-10 -13 -6 0 -10 -42 -10 -105 l0 -105 -190 0 c-120 0 -190 -4 -190 -10 0 -5
-5 -10 -11 -10 -14 0 -39 -25 -39 -39 0 -6 -4 -11 -10 -11 -6 0 -10 -45 -10
-115 l0 -115 110 0 c93 0 110 2 110 15 0 9 11 27 25 40 21 22 33 25 90 25 57
0 69 -3 90 -25 14 -13 25 -31 25 -40 0 -13 43 -15 370 -15 327 0 370 2 370 15
0 9 11 27 25 40 21 22 33 25 91 25 56 0 70 -4 85 -22 11 -11 19 -29 19 -40 0
-16 10 -18 115 -18 l115 0 0 115 c0 70 -4 115 -10 115 -5 0 -10 5 -10 11 0 16
-26 39 -44 39 -9 0 -16 5 -16 10 0 6 -68 10 -185 10 l-185 0 0 105 c0 63 -4
105 -10 105 -5 0 -10 7 -10 15 0 8 -4 15 -9 15 -5 0 -13 9 -16 20 -3 11 -15
20 -26 20 -10 0 -19 5 -19 10 0 6 -100 10 -280 10 -180 0 -280 -4 -280 -10z
m500 -215 l0 -75 -220 0 -220 0 0 75 0 75 220 0 220 0 0 -75z"/>
<path d="M0 340 c0 -167 4 -260 10 -260 6 0 10 -7 10 -16 0 -18 23 -44 39 -44
6 0 11 -4 11 -10 0 -7 255 -10 745 -10 490 0 745 3 745 10 0 6 7 10 16 10 20
0 44 24 44 44 0 9 5 16 10 16 6 0 10 93 10 260 l0 260 -115 0 -115 0 0 -53 c0
-79 -19 -97 -104 -97 -58 0 -70 3 -91 25 -20 19 -25 34 -25 75 l0 50 -370 0
-370 0 0 -50 c0 -41 -5 -56 -25 -75 -21 -22 -33 -25 -90 -25 -57 0 -69 3 -90
25 -20 19 -25 34 -25 75 l0 50 -110 0 -110 0 0 -260z"/>
</g>
</svg>
