<?xml version="1.0" standalone="no"?>
<!DOCTYPE svg PUBLIC "-//W3C//DTD SVG 20010904//EN"
 "http://www.w3.org/TR/2001/REC-SVG-20010904/DTD/svg10.dtd">
<svg version="1.0" xmlns="http://www.w3.org/2000/svg"
 width="276.000000pt" height="276.000000pt" viewBox="0 0 276.000000 276.000000"
 preserveAspectRatio="xMidYMid meet">
<metadata>
Created by potrace 1.14, written by Peter Selinger 2001-2017
</metadata>
<g transform="translate(0.000000,276.000000) scale(0.100000,-0.100000)" stroke="none">
<path d="M690 2470 c0 -5 -25 -10 -55 -10 -42 0 -55 -3 -55 -15 0 -10 -10 -15
-30 -15 -20 0 -30 -5 -30 -15 0 -9 -9 -15 -25 -15 -16 0 -25 -6 -25 -15 0 -9
-10 -15 -26 -15 -26 0 -54 -20 -54 -39 0 -6 -7 -11 -15 -11 -8 0 -15 -7 -15
-15 0 -8 -7 -15 -15 -15 -8 0 -15 -7 -15 -15 0 -8 -5 -15 -11 -15 -14 0 -39
-25 -39 -39 0 -6 -7 -11 -15 -11 -8 0 -15 -7 -15 -15 0 -8 -7 -15 -15 -15 -9
0 -15 -9 -15 -25 0 -16 -6 -25 -15 -25 -10 0 -15 -10 -15 -30 0 -16 -4 -30
-10 -30 -5 0 -10 -13 -10 -30 0 -20 -5 -30 -15 -30 -12 0 -15 -13 -15 -55 0
-42 -3 -55 -15 -55 -13 0 -15 -23 -15 -150 0 -127 2 -150 15 -150 12 0 15 -13
15 -55 0 -42 3 -55 15 -55 9 0 15 -9 15 -25 0 -25 0 -25 95 -25 57 0 95 4 95
10 0 6 7 10 15 10 10 0 15 10 15 30 0 17 5 30 10 30 6 0 10 11 10 25 0 16 6
25 15 25 10 0 15 10 15 30 0 20 5 30 15 30 8 0 15 7 15 15 0 9 9 15 25 15 16
0 25 -6 25 -15 0 -8 7 -15 15 -15 10 0 15 -10 15 -30 0 -20 5 -30 15 -30 11 0
15 -11 15 -40 0 -29 4 -40 15 -40 9 0 15 -9 15 -25 0 -14 5 -25 10 -25 6 0 10
-13 10 -30 0 -20 5 -30 15 -30 12 0 15 13 15 55 0 42 3 55 15 55 12 0 15 14
15 70 0 56 3 70 15 70 12 0 15 14 15 70 0 56 3 70 15 70 12 0 15 14 15 65 0
37 4 65 10 65 6 0 10 30 10 70 0 56 3 70 15 70 11 0 15 12 15 45 0 33 4 45 15
45 8 0 15 5 15 10 0 6 11 10 25 10 14 0 25 -4 25 -10 0 -5 7 -10 15 -10 12 0
15 -13 15 -60 0 -47 3 -60 15 -60 12 0 15 -14 15 -65 0 -51 3 -65 15 -65 12 0
15 -16 15 -85 0 -50 4 -85 10 -85 6 0 10 -30 10 -70 0 -56 3 -70 15 -70 12 0
15 -16 15 -80 0 -64 3 -80 15 -80 12 0 15 -14 15 -70 0 -56 3 -70 15 -70 12 0
15 -16 15 -85 0 -50 4 -85 10 -85 6 0 10 7 10 15 0 8 7 15 15 15 11 0 15 11
15 40 0 29 4 40 15 40 11 0 15 12 15 45 0 33 4 45 15 45 9 0 15 9 15 25 0 14
5 25 10 25 6 0 10 20 10 45 0 33 4 45 15 45 9 0 15 9 15 25 0 16 6 25 15 25
11 0 15 11 15 40 0 29 4 40 15 40 10 0 15 10 15 30 0 17 5 30 10 30 6 0 10 7
10 15 0 10 10 15 30 15 20 0 30 -5 30 -15 0 -8 7 -15 15 -15 10 0 15 -10 15
-30 0 -20 5 -30 15 -30 11 0 15 -11 15 -40 0 -22 5 -40 10 -40 6 0 10 -11 10
-25 0 -16 6 -25 15 -25 11 0 15 -12 15 -45 0 -33 4 -45 15 -45 9 0 15 -9 15
-25 0 -14 5 -25 11 -25 19 0 39 28 39 54 0 16 6 26 15 26 8 0 15 7 15 15 0 8
7 15 15 15 8 0 15 7 15 15 0 13 25 15 165 15 103 0 165 4 165 10 0 6 7 10 15
10 8 0 15 7 15 15 0 12 13 15 55 15 42 0 55 -3 55 -15 0 -8 5 -15 11 -15 24 0
39 -30 39 -80 0 -50 -15 -80 -39 -80 -6 0 -11 -7 -11 -15 0 -12 -13 -15 -55
-15 -42 0 -55 3 -55 15 0 8 -7 15 -15 15 -8 0 -15 5 -15 10 0 6 -52 10 -136
10 -147 0 -164 -6 -164 -54 0 -16 -6 -26 -15 -26 -8 0 -15 -7 -15 -15 0 -8 -7
-15 -15 -15 -9 0 -15 -9 -15 -25 0 -16 -6 -25 -15 -25 -8 0 -15 -7 -15 -15 0
-8 -4 -15 -10 -15 -5 0 -10 -7 -10 -15 0 -10 -10 -15 -30 -15 -20 0 -30 5 -30
15 0 8 -7 15 -15 15 -10 0 -15 10 -15 30 0 17 -4 30 -10 30 -5 0 -10 18 -10
40 0 29 -4 40 -15 40 -9 0 -15 9 -15 25 0 16 -6 25 -15 25 -11 0 -15 12 -15
45 0 43 -1 45 -30 45 -27 0 -30 -3 -30 -30 0 -16 -4 -30 -10 -30 -5 0 -10 -18
-10 -40 0 -29 -4 -40 -15 -40 -11 0 -15 -11 -15 -40 0 -29 -4 -40 -15 -40 -10
0 -15 -10 -15 -30 0 -20 -5 -30 -15 -30 -11 0 -15 -11 -15 -40 0 -22 -4 -40
-10 -40 -5 0 -10 -13 -10 -30 0 -20 -5 -30 -15 -30 -11 0 -15 -11 -15 -40 0
-29 -4 -40 -15 -40 -9 0 -15 -9 -15 -25 0 -16 -6 -25 -15 -25 -8 0 -15 -7 -15
-15 0 -9 -9 -15 -25 -15 -16 0 -25 6 -25 15 0 8 -7 15 -15 15 -12 0 -15 13
-15 55 0 42 -3 55 -15 55 -12 0 -15 14 -15 65 0 37 -4 65 -10 65 -6 0 -10 35
-10 85 0 69 -3 85 -15 85 -12 0 -15 14 -15 70 0 56 -3 70 -15 70 -12 0 -15 16
-15 80 0 64 -3 80 -15 80 -12 0 -15 14 -15 70 0 40 -4 70 -10 70 -5 0 -10 14
-10 30 0 20 -5 30 -15 30 -12 0 -15 -14 -15 -70 0 -56 -3 -70 -15 -70 -12 0
-15 -14 -15 -70 0 -56 -3 -70 -15 -70 -12 0 -15 -14 -15 -70 0 -40 -4 -70 -10
-70 -6 0 -10 -30 -10 -70 0 -56 -3 -70 -15 -70 -11 0 -15 -11 -15 -40 0 -29
-4 -40 -15 -40 -8 0 -15 -7 -15 -15 0 -10 -10 -15 -30 -15 -20 0 -30 5 -30 15
0 8 -4 15 -10 15 -5 0 -10 14 -10 30 0 20 -5 30 -15 30 -11 0 -15 11 -15 40 0
29 -4 40 -15 40 -9 0 -15 9 -15 25 0 16 -6 25 -15 25 -11 0 -15 12 -15 45 0
25 -4 45 -10 45 -5 0 -10 7 -10 15 0 8 -7 15 -15 15 -8 0 -15 -7 -15 -15 0 -8
-7 -15 -15 -15 -10 0 -15 -10 -15 -30 0 -20 -5 -30 -15 -30 -8 0 -15 -7 -15
-15 0 -12 -17 -15 -95 -15 -95 0 -95 0 -95 -25 0 -16 6 -25 15 -25 10 0 15
-10 15 -30 0 -16 5 -30 11 -30 19 0 39 -28 39 -54 0 -16 6 -26 15 -26 8 0 15
-7 15 -15 0 -8 7 -15 15 -15 8 0 15 -4 15 -10 0 -5 7 -10 15 -10 10 0 15 -10
15 -30 0 -16 5 -30 10 -30 6 0 10 -7 10 -15 0 -8 7 -15 15 -15 8 0 15 -4 15
-10 0 -5 7 -10 15 -10 8 0 15 -7 15 -15 0 -8 7 -15 15 -15 8 0 15 -7 15 -15 0
-8 5 -15 10 -15 6 0 10 -7 10 -15 0 -8 7 -15 15 -15 8 0 15 -4 15 -10 0 -5 7
-10 15 -10 8 0 15 -7 15 -15 0 -9 9 -15 25 -15 16 0 25 -6 25 -15 0 -8 7 -15
15 -15 8 0 15 -7 15 -15 0 -8 7 -15 15 -15 8 0 15 -4 15 -10 0 -5 7 -10 15
-10 8 0 15 -7 15 -15 0 -8 7 -15 15 -15 8 0 15 -7 15 -15 0 -9 9 -15 25 -15
16 0 25 -6 25 -15 0 -8 7 -15 15 -15 8 0 15 -7 15 -15 0 -9 9 -15 25 -15 14 0
25 -4 25 -10 0 -5 7 -10 15 -10 8 0 15 -7 15 -15 0 -8 7 -15 15 -15 8 0 15 -7
15 -15 0 -9 9 -15 25 -15 16 0 25 -6 25 -15 0 -8 7 -15 15 -15 8 0 15 -4 15
-10 0 -5 14 -10 30 -10 20 0 30 -5 30 -15 0 -8 5 -15 10 -15 6 0 10 -7 10 -15
0 -10 10 -15 30 -15 20 0 30 -5 30 -15 0 -8 7 -15 15 -15 8 0 15 -4 15 -10 0
-5 11 -10 25 -10 16 0 25 -6 25 -15 0 -8 7 -15 15 -15 8 0 15 -7 15 -15 0 -8
7 -15 15 -15 8 0 15 -7 15 -15 0 -9 9 -15 25 -15 14 0 25 -4 25 -10 0 -5 14
-10 30 -10 17 0 30 5 30 10 0 6 11 10 25 10 16 0 25 6 25 15 0 8 7 15 15 15 8
0 15 7 15 15 0 8 7 15 15 15 8 0 15 7 15 15 0 9 9 15 25 15 14 0 25 5 25 10 0
6 7 10 15 10 8 0 15 7 15 15 0 10 10 15 30 15 20 0 30 5 30 15 0 8 5 15 10 15
6 0 10 7 10 15 0 10 10 15 30 15 17 0 30 5 30 10 0 6 7 10 15 10 8 0 15 7 15
15 0 9 9 15 25 15 16 0 25 6 25 15 0 8 7 15 15 15 8 0 15 7 15 15 0 9 9 15 25
15 14 0 25 5 25 10 0 6 7 10 15 10 8 0 15 7 15 15 0 8 7 15 15 15 8 0 15 7 15
15 0 9 9 15 25 15 16 0 25 6 25 15 0 8 7 15 15 15 8 0 15 7 15 15 0 8 7 15 15
15 8 0 15 5 15 10 0 6 7 10 15 10 8 0 15 7 15 15 0 9 9 15 25 15 16 0 25 6 25
15 0 8 7 15 15 15 8 0 15 7 15 15 0 8 7 15 15 15 8 0 15 5 15 10 0 6 7 10 15
10 8 0 15 7 15 15 0 8 5 15 10 15 6 0 10 7 10 15 0 8 7 15 15 15 8 0 15 7 15
15 0 8 7 15 15 15 8 0 15 5 15 10 0 6 7 10 15 10 8 0 15 7 15 15 0 8 5 15 10
15 6 0 10 14 10 30 0 20 5 30 15 30 8 0 15 5 15 10 0 6 7 10 15 10 8 0 15 7
15 15 0 8 7 15 15 15 9 0 15 10 15 26 0 26 20 54 39 54 6 0 11 14 11 30 0 20
5 30 15 30 9 0 15 9 15 25 0 16 6 25 15 25 11 0 15 12 15 45 0 25 5 45 10 45
6 0 10 18 10 40 0 29 4 40 15 40 12 0 15 13 15 55 0 42 3 55 15 55 13 0 15 23
15 150 0 127 -2 150 -15 150 -12 0 -15 13 -15 55 0 42 -3 55 -15 55 -10 0 -15
10 -15 30 0 17 -4 30 -10 30 -5 0 -10 14 -10 30 0 20 -5 30 -15 30 -9 0 -15 9
-15 25 0 16 -6 25 -15 25 -8 0 -15 7 -15 15 0 8 -7 15 -15 15 -8 0 -15 5 -15
11 0 14 -25 39 -39 39 -6 0 -11 7 -11 15 0 8 -7 15 -15 15 -8 0 -15 7 -15 15
0 8 -7 15 -15 15 -8 0 -15 5 -15 11 0 19 -28 39 -54 39 -16 0 -26 6 -26 15 0
9 -9 15 -25 15 -16 0 -25 6 -25 15 0 10 -10 15 -30 15 -20 0 -30 5 -30 15 0
12 -13 15 -55 15 -30 0 -55 5 -55 10 0 6 -53 10 -140 10 -87 0 -140 -4 -140
-10 0 -5 -25 -10 -55 -10 -42 0 -55 -3 -55 -15 0 -9 -9 -15 -25 -15 -16 0 -25
-6 -25 -15 0 -10 -10 -15 -30 -15 -20 0 -30 -5 -30 -15 0 -9 -9 -15 -25 -15
-14 0 -25 -4 -25 -10 0 -5 -7 -10 -15 -10 -8 0 -15 -7 -15 -15 0 -8 -7 -15
-15 -15 -8 0 -15 -7 -15 -15 0 -8 -4 -15 -10 -15 -5 0 -10 -7 -10 -15 0 -8 -7
-15 -15 -15 -8 0 -15 -4 -15 -10 0 -5 -13 -10 -30 -10 -16 0 -30 5 -30 10 0 6
-7 10 -15 10 -8 0 -15 7 -15 15 0 8 -4 15 -10 15 -5 0 -10 7 -10 15 0 8 -7 15
-15 15 -8 0 -15 7 -15 15 0 8 -7 15 -15 15 -8 0 -15 5 -15 10 0 6 -11 10 -25
10 -16 0 -25 6 -25 15 0 10 -10 15 -30 15 -20 0 -30 5 -30 15 0 9 -9 15 -25
15 -16 0 -25 6 -25 15 0 12 -13 15 -55 15 -30 0 -55 5 -55 10 0 6 -53 10 -140
10 -87 0 -140 -4 -140 -10z"/>
</g>
</svg>
