<?xml version="1.0" standalone="no"?>
<!DOCTYPE svg PUBLIC "-//W3C//DTD SVG 20010904//EN"
 "http://www.w3.org/TR/2001/REC-SVG-20010904/DTD/svg10.dtd">
<svg version="1.0" xmlns="http://www.w3.org/2000/svg"
 width="248.000000pt" height="248.000000pt" viewBox="0 0 248.000000 248.000000"
 preserveAspectRatio="xMidYMid meet">
<metadata>
Created by potrace 1.14, written by Peter Selinger 2001-2017
</metadata>
<g transform="translate(0.000000,248.000000) scale(0.100000,-0.100000)" stroke="none">
<path d="M1290 2470 c0 -5 -16 -10 -35 -10 -24 0 -35 -5 -35 -15 0 -11 -12
-15 -50 -15 -27 0 -50 -4 -50 -10 0 -5 -18 -10 -40 -10 -29 0 -40 -4 -40 -15
0 -10 -11 -15 -35 -15 -19 0 -35 -4 -35 -10 0 -5 -18 -10 -40 -10 -29 0 -40
-4 -40 -15 0 -10 -11 -15 -35 -15 -19 0 -35 -4 -35 -10 0 -5 -22 -10 -50 -10
-38 0 -50 -4 -50 -15 0 -11 -11 -15 -40 -15 -22 0 -40 -4 -40 -10 0 -5 -16
-10 -35 -10 -24 0 -35 -5 -35 -15 0 -9 -9 -15 -21 -15 -51 0 -49 46 -49 -1015
0 -1089 -5 -1015 64 -1015 25 0 36 -4 36 -15 0 -11 12 -15 45 -15 25 0 45 -4
45 -10 0 -5 23 -10 50 -10 38 0 50 -4 50 -15 0 -11 12 -15 50 -15 28 0 50 -4
50 -10 0 -5 23 -10 50 -10 38 0 50 -4 50 -15 0 -11 12 -15 50 -15 28 0 50 -4
50 -10 0 -5 23 -10 50 -10 38 0 50 -4 50 -15 0 -11 12 -15 50 -15 28 0 50 -4
50 -10 0 -5 16 -10 35 -10 19 0 35 5 35 10 0 6 7 10 15 10 13 0 15 142 15
1220 0 1078 -2 1220 -15 1220 -8 0 -15 5 -15 10 0 6 -16 10 -35 10 -19 0 -35
-4 -35 -10z"/>
<path d="M1490 2230 l0 -50 195 0 195 0 0 -940 0 -940 -195 0 -195 0 0 -50 0
-50 231 0 c186 0 233 3 245 14 21 22 21 2030 0 2052 -12 11 -59 14 -245 14
l-231 0 0 -50z"/>
</g>
</svg>
